<svg version="1.2" xmlns="http://www.w3.org/2000/svg" viewBox="0 0 800 800" width="800" height="800">
	<title>45656-ai</title>
	<defs>
		<clipPath clipPathUnits="userSpaceOnUse" id="cp1">
			<path d="m581.61 397.13c0 96.55-78.28 174.83-174.83 174.83-96.56 0-174.84-78.28-174.84-174.83 0-96.56 78.28-174.84 174.84-174.84 96.55 0 174.83 78.28 174.83 174.84z"/>
		</clipPath>
		<clipPath clipPathUnits="userSpaceOnUse" id="cp2">
			<path d="m702.03 327.12h-0.43c-4.37 0-8.05-3.28-8.56-7.62l-4.96-42.3c-0.36-3.06 0.61-6.12 2.65-8.42 2.05-2.3 4.98-3.61 8.05-3.61h2.8c15.02 0 27.2-12.18 27.2-27.21 0-15.02-12.18-27.2-27.2-27.2h-75.15l-19.04 4.31v45.79l19.04 4.31h9.77c3.44 1.49 5.85 4.9 5.85 8.89 0 3.21-1.56 6.04-3.97 7.81h8.87c2.74 0 5.04 2.04 5.35 4.76l3.62 30.87c0.29 2.44-0.48 4.89-2.12 6.73-1.63 1.84-3.98 2.89-6.44 2.89z"/>
		</clipPath>
		<clipPath clipPathUnits="userSpaceOnUse" id="cp3">
			<path d="m600.93 256.28h-23.7v-36.63h23.7z"/>
		</clipPath>
		<clipPath clipPathUnits="userSpaceOnUse" id="cp4">
			<path d="m699.56 253.05c8.33 0 15.08-6.76 15.08-15.09 0-8.33-6.75-15.08-15.08-15.08z"/>
		</clipPath>
		<clipPath clipPathUnits="userSpaceOnUse" id="cp5">
			<path d="m564.53 647.69h-86.96v-6.21h86.96l4.27 3.1z"/>
		</clipPath>
		<clipPath clipPathUnits="userSpaceOnUse" id="cp6">
			<path d="m433.92 662.16h22.74v-35.15h-22.74z"/>
		</clipPath>
		<clipPath clipPathUnits="userSpaceOnUse" id="cp7">
			<path d="m304.41 659.06c-7.99 0-14.47-6.48-14.47-14.48 0-7.99 6.48-14.47 14.47-14.47z"/>
		</clipPath>
		<clipPath clipPathUnits="userSpaceOnUse" id="cp8">
			<path d="m203.07 163.23v219.38h-32.99v-93.2h6.6c5.46 0 9.9-4.44 9.9-9.89v-13.2c0-5.45-4.44-9.89-9.9-9.89h-6.6v-93.2zm-16.49 22.79c-6.38 0-11.55 5.17-11.55 11.55 0 6.38 5.17 11.55 11.55 11.55 6.38 0 11.55-5.17 11.55-11.55 0-6.38-5.17-11.55-11.55-11.55zm0 150.7c-6.38 0-11.55 5.17-11.55 11.55 0 6.38 5.17 11.55 11.55 11.55 6.38 0 11.55-5.17 11.55-11.55 0-6.38-5.17-11.55-11.55-11.55z"/>
		</clipPath>
		<clipPath clipPathUnits="userSpaceOnUse" id="cp9">
			<path d="m144.25 600.89c0 8.01-6.5 14.51-14.51 14.51-8.02 0-14.51-6.5-14.51-14.51z"/>
		</clipPath>
	</defs>
	<style>
		.s0 { fill: #cccccc } 
		.s1 { fill: #f57151 } 
		.s2 { fill: #91b0ff } 
		.s3 { fill: #368f82 } 
		.s4 { fill: #f2f2f2 } 
		.s5 { fill: #f7bc9a } 
		.s6 { fill: #363636 } 
		.s7 { fill: #aabcf2 } 
		.s8 { fill: #2d497d } 
		.s9 { fill: #eb4e27 } 
		.s10 { fill: #ffb29f } 
		.s11 { fill: #bf3317 } 
		.s12 { fill: #452800 } 
		.s13 { fill: #808080 } 
		.s14 { fill: #4d4d4d } 
		.s15 { fill: #c9c9c9 } 
		.s16 { fill: #ededed } 
		.s17 { fill: #f7ae4e } 
		.s18 { fill: #c98833 } 
		.s19 { fill: #f3cb95 } 
		.s20 { fill: #5b79bf } 
		.s21 { fill: #08358f } 
		.s22 { fill: #2a4069 } 
		.s23 { fill: #4469c4 } 
		.s24 { fill: #92a9ef } 
		.s25 { fill: #c4c4c4 } 
		.s26 { fill: #e39125 } 
		.s27 { fill: #5c87ed } 
		.s28 { fill: #eb5e41 } 
		.s29 { fill: #bf4227 } 
		.s30 { fill: #ffffff } 
		.s31 { fill: #c7c7c7 } 
		.s32 { fill: #8f8f8f } 
	</style>
	<g id="_Artboards_">
	</g>
	<g id="layer">
		<g id="&lt;Group&gt;">
			<g id="&lt;Group&gt;">
				<g id="&lt;Group&gt;" style="opacity: .7">
					<path id="&lt;Compound Path&gt;" class="s0" d="m395.5 715.4q0 0 0 0h-2c-1.7 0-3-1.4-3-3 0.1-1.7 1.4-3 3-3q0.1 0 0.1 0h2c1.6 0.1 3 1.4 2.9 3.1 0 1.6-1.3 2.9-3 2.9zm14-0.1c-1.6 0-2.9-1.3-3-2.9 0-1.7 1.3-3.1 2.9-3.1l2-0.1c1.6 0 3.1 1.3 3.1 2.9 0.1 1.7-1.2 3.1-2.9 3.1l-2 0.1q0 0-0.1 0zm-29.9-0.5q-0.1 0-0.2 0l-2.1-0.1c-1.6-0.1-2.8-1.5-2.7-3.2 0.1-1.7 1.5-2.9 3.2-2.8l1.9 0.1c1.7 0.1 3 1.6 2.9 3.2-0.1 1.6-1.5 2.8-3 2.8zm45.9-0.4c-1.5 0-2.9-1.2-3-2.8-0.1-1.6 1.1-3.1 2.7-3.2l2-0.2c1.7-0.1 3.1 1.1 3.3 2.7 0.1 1.7-1.1 3.2-2.7 3.3l-2 0.2q-0.2 0-0.3 0zm-61.9-1q-0.1 0-0.3 0l-2-0.2c-1.7-0.2-2.8-1.7-2.6-3.3 0.2-1.7 1.6-2.9 3.3-2.7l2 0.3c1.6 0.2 2.8 1.6 2.6 3.3-0.2 1.5-1.5 2.6-3 2.6zm77.8-0.7c-1.5 0-2.8-1.1-3-2.6-0.2-1.7 1-3.2 2.6-3.4l2-0.3c1.6-0.2 3.1 0.9 3.3 2.6 0.3 1.6-0.9 3.1-2.5 3.4l-2 0.2q-0.2 0.1-0.4 0.1zm-93.6-1.5q-0.3 0-0.5 0l-2-0.3c-1.6-0.3-2.7-1.9-2.4-3.5 0.2-1.6 1.8-2.7 3.4-2.5l2 0.4c1.6 0.2 2.7 1.8 2.4 3.4-0.2 1.5-1.5 2.5-2.9 2.5zm109.4-1.1c-1.4 0-2.7-1-3-2.4-0.3-1.7 0.8-3.2 2.4-3.5l2-0.4c1.6-0.3 3.2 0.8 3.5 2.4 0.3 1.6-0.8 3.2-2.4 3.5l-2 0.4q-0.2 0-0.5 0zm-125.1-1.9q-0.3 0-0.7-0.1l-1.9-0.4c-1.7-0.4-2.7-2-2.3-3.6 0.4-1.6 2-2.6 3.6-2.2l1.9 0.4c1.6 0.3 2.7 1.9 2.3 3.6-0.3 1.4-1.5 2.3-2.9 2.3zm140.7-1.4c-1.3 0-2.6-0.9-2.9-2.3-0.4-1.6 0.6-3.2 2.2-3.6l2-0.5c1.6-0.4 3.2 0.6 3.6 2.2 0.4 1.6-0.6 3.2-2.2 3.6l-2 0.5q-0.3 0.1-0.7 0.1zm-156.3-2.4q-0.3 0-0.7-0.1l-2-0.5c-1.6-0.5-2.5-2.1-2.1-3.7 0.5-1.6 2.1-2.6 3.7-2.1l1.9 0.5c1.6 0.4 2.6 2.1 2.1 3.7-0.3 1.3-1.5 2.2-2.9 2.2zm171.8-1.7c-1.3 0-2.5-0.9-2.9-2.2-0.5-1.6 0.4-3.3 2-3.7l1.9-0.6c1.6-0.5 3.3 0.4 3.8 2 0.4 1.6-0.4 3.3-2 3.7l-2 0.6q-0.4 0.2-0.8 0.2zm-187.1-2.9q-0.4 0-0.9-0.2l-1.9-0.6c-1.6-0.5-2.4-2.2-1.9-3.8 0.5-1.6 2.2-2.4 3.8-1.9l1.9 0.6c1.5 0.6 2.4 2.2 1.9 3.8-0.4 1.3-1.6 2.1-2.9 2.1zm202.3-2.1c-1.2 0-2.4-0.7-2.8-2-0.6-1.5 0.2-3.2 1.8-3.8l1.9-0.7c1.5-0.5 3.2 0.3 3.8 1.8 0.6 1.6-0.2 3.3-1.8 3.9l-1.9 0.7q-0.5 0.1-1 0.1zm-217.4-3.3q-0.5 0-1.1-0.2l-1.8-0.8c-1.6-0.6-2.3-2.3-1.7-3.9 0.6-1.5 2.3-2.3 3.9-1.7l1.8 0.8c1.6 0.6 2.3 2.3 1.7 3.9-0.4 1.1-1.6 1.9-2.8 1.9zm232.3-2.4c-1.1 0-2.3-0.7-2.7-1.8-0.7-1.6 0.1-3.3 1.6-3.9l1.8-0.8c1.6-0.6 3.3 0.1 3.9 1.6 0.7 1.5 0 3.3-1.6 3.9l-1.8 0.8q-0.6 0.2-1.2 0.2zm-247.1-3.8q-0.6 0-1.2-0.3l-1.8-0.8c-1.5-0.7-2.2-2.5-1.5-4 0.7-1.5 2.5-2.2 4-1.5l1.8 0.9c1.5 0.6 2.2 2.4 1.5 3.9-0.5 1.1-1.6 1.8-2.8 1.8zm261.7-2.6c-1.1 0-2.2-0.7-2.7-1.7-0.7-1.5-0.1-3.3 1.4-4l1.8-0.9c1.5-0.7 3.3-0.1 4 1.4 0.8 1.5 0.1 3.3-1.4 4l-1.8 0.9q-0.6 0.3-1.3 0.3zm-276.1-4.3q-0.7 0-1.4-0.4l-1.8-0.9c-1.4-0.8-2-2.6-1.2-4 0.7-1.5 2.5-2.1 4-1.3l1.8 0.9c1.4 0.7 2 2.6 1.3 4-0.6 1.1-1.6 1.7-2.7 1.7zm290.4-2.9c-1.1 0-2.1-0.6-2.7-1.6-0.7-1.5-0.2-3.3 1.3-4.1l1.7-0.9c1.5-0.8 3.3-0.3 4.1 1.2 0.8 1.5 0.2 3.3-1.2 4.1l-1.8 0.9q-0.7 0.4-1.4 0.4zm-304.5-4.8q-0.8 0-1.5-0.4l-1.7-1c-1.5-0.9-1.9-2.7-1.1-4.1 0.8-1.4 2.7-1.9 4.1-1.1l1.7 1c1.5 0.8 1.9 2.7 1.1 4.1-0.5 1-1.5 1.5-2.6 1.5zm318.4-3.1c-1.1 0-2-0.5-2.6-1.5-0.9-1.4-0.4-3.2 1-4.1l1.7-1c1.4-0.9 3.2-0.4 4.1 1 0.9 1.4 0.4 3.2-1 4.1l-1.7 1q-0.7 0.5-1.5 0.5zm-332-5.3c-0.6 0-1.2-0.1-1.7-0.4l-1.7-1.1c-1.3-1-1.7-2.8-0.8-4.2 0.9-1.4 2.8-1.8 4.1-0.9l1.7 1.1c1.4 0.9 1.8 2.8 0.9 4.2-0.6 0.9-1.6 1.3-2.5 1.3zm345.4-3.3c-1 0-1.9-0.5-2.5-1.4-0.9-1.3-0.5-3.2 0.8-4.1l1.7-1.1c1.3-1 3.2-0.6 4.1 0.8 1 1.3 0.6 3.2-0.7 4.1l-1.7 1.2c-0.5 0.3-1.1 0.5-1.7 0.5zm-358.6-5.7c-0.7 0-1.3-0.2-1.8-0.6l-1.6-1.2c-1.4-1-1.7-2.8-0.7-4.2 1-1.3 2.9-1.6 4.2-0.6l1.6 1.2c1.4 0.9 1.7 2.8 0.7 4.1-0.6 0.9-1.5 1.3-2.4 1.3zm371.6-3.6c-0.9 0-1.8-0.4-2.4-1.2-1-1.3-0.7-3.2 0.6-4.2l1.6-1.2c1.3-1 3.2-0.8 4.2 0.6 1 1.3 0.7 3.2-0.6 4.2l-1.6 1.2c-0.5 0.4-1.2 0.6-1.8 0.6zm-384.4-6.1c-0.6 0-1.3-0.2-1.8-0.7l-1.6-1.2c-1.3-1.1-1.5-3-0.5-4.3 1.1-1.2 3-1.4 4.3-0.4l1.5 1.2c1.3 1.1 1.5 3 0.5 4.3-0.6 0.7-1.5 1.1-2.4 1.1zm396.9-3.8c-0.8 0-1.7-0.4-2.3-1.1-1-1.3-0.9-3.2 0.4-4.3l1.5-1.2c1.3-1.1 3.2-0.9 4.3 0.3 1 1.3 0.9 3.2-0.4 4.3l-1.5 1.3c-0.6 0.4-1.3 0.7-2 0.7zm-409.1-6.6c-0.7 0-1.4-0.2-2-0.7l-1.5-1.4c-1.2-1.1-1.3-3-0.2-4.2 1.1-1.2 3-1.3 4.2-0.2l1.5 1.3c1.3 1.1 1.4 3 0.3 4.2-0.6 0.7-1.5 1-2.3 1zm421.1-4c-0.8 0-1.6-0.3-2.2-1-1.1-1.2-1-3.1 0.2-4.2l1.4-1.4c1.3-1.1 3.2-1 4.3 0.2 1.1 1.2 1.1 3.1-0.2 4.2l-1.4 1.4c-0.6 0.5-1.3 0.8-2.1 0.8zm-432.7-6.9c-0.8 0-1.6-0.3-2.2-0.9l-1.4-1.4c-1.2-1.1-1.2-3 0-4.2 1.2-1.2 3.1-1.2 4.3 0l1.4 1.4c1.1 1.1 1.2 3 0 4.2-0.6 0.6-1.4 0.9-2.1 0.9zm444.2-4.3c-0.8 0-1.5-0.3-2.1-0.8-1.2-1.2-1.2-3.1-0.1-4.3l1.4-1.4c1.2-1.2 3.1-1.2 4.3-0.1 1.2 1.2 1.2 3.1 0 4.3l-1.3 1.4c-0.6 0.6-1.4 0.9-2.2 0.9zm-455.3-7.2c-0.9 0-1.7-0.3-2.3-1l-1.3-1.5c-1.1-1.2-1-3.1 0.2-4.2 1.2-1.1 3.1-1 4.2 0.2l1.4 1.5c1.1 1.2 1 3.1-0.2 4.2-0.6 0.5-1.3 0.8-2 0.8zm466.2-4.5c-0.7 0-1.4-0.2-2-0.7-1.3-1.1-1.4-3-0.3-4.3l1.3-1.5c1.1-1.2 3-1.4 4.3-0.3 1.2 1.1 1.3 3 0.2 4.3l-1.3 1.5c-0.6 0.7-1.4 1-2.2 1zm-476.7-7.6c-0.9 0-1.8-0.3-2.3-1.1l-1.3-1.5c-1.1-1.3-0.9-3.2 0.4-4.2 1.3-1.1 3.2-0.9 4.2 0.4l1.3 1.5c1 1.3 0.9 3.2-0.4 4.2-0.6 0.5-1.3 0.7-1.9 0.7zm486.9-4.7c-0.6 0-1.3-0.2-1.8-0.6-1.3-1.1-1.5-2.9-0.5-4.2l1.2-1.6c1-1.3 2.9-1.5 4.2-0.5 1.3 1 1.6 2.9 0.5 4.2l-1.2 1.6c-0.6 0.7-1.5 1.1-2.4 1.1zm-496.8-7.9c-0.9 0-1.8-0.4-2.4-1.2l-1.2-1.6c-1-1.3-0.7-3.2 0.6-4.2 1.4-1 3.3-0.7 4.2 0.7l1.2 1.6c1 1.3 0.7 3.2-0.6 4.2-0.5 0.4-1.2 0.5-1.8 0.5zm506.5-4.9c-0.6 0-1.2-0.1-1.8-0.5-1.3-1-1.6-2.9-0.7-4.2l1.2-1.6c0.9-1.4 2.8-1.7 4.2-0.7 1.3 0.9 1.6 2.8 0.7 4.1l-1.2 1.7c-0.6 0.8-1.5 1.2-2.4 1.2zm-515.7-8.1c-1 0-1.9-0.5-2.5-1.3l-1.1-1.7c-0.9-1.4-0.5-3.3 0.8-4.2 1.4-0.9 3.3-0.5 4.2 0.9l1.1 1.6c0.9 1.4 0.5 3.3-0.8 4.2-0.6 0.3-1.1 0.5-1.7 0.5zm524.6-5.1c-0.5 0-1.1-0.2-1.6-0.5-1.4-0.9-1.8-2.7-0.9-4.1l1.1-1.7c0.9-1.4 2.7-1.8 4.1-0.9 1.4 0.8 1.8 2.7 1 4.1l-1.1 1.7c-0.6 0.9-1.6 1.4-2.6 1.4zm-533.1-8.4c-1.1 0-2.1-0.5-2.6-1.5l-1-1.7c-0.9-1.4-0.4-3.3 1-4.1 1.5-0.9 3.3-0.4 4.1 1.1l1 1.7c0.9 1.4 0.4 3.2-1 4.1q-0.7 0.4-1.5 0.4zm541.4-5.3q-0.7 0-1.5-0.4c-1.4-0.8-1.9-2.7-1.1-4.1l1-1.7c0.8-1.5 2.7-2 4.1-1.2 1.4 0.8 1.9 2.7 1.1 4.1l-1 1.8c-0.5 0.9-1.5 1.5-2.6 1.5zm-549.3-8.6c-1 0-2.1-0.6-2.6-1.6l-1-1.8c-0.7-1.5-0.2-3.3 1.3-4.1 1.5-0.7 3.3-0.1 4.1 1.3l0.9 1.8c0.8 1.4 0.2 3.3-1.3 4q-0.7 0.4-1.4 0.4zm556.9-5.5q-0.7 0-1.3-0.4c-1.5-0.7-2.1-2.5-1.4-4l0.9-1.8c0.8-1.4 2.5-2 4-1.3 1.5 0.7 2.1 2.5 1.4 4l-0.9 1.8c-0.5 1.1-1.6 1.7-2.7 1.7zm-564-8.8c-1.1 0-2.2-0.7-2.7-1.8l-0.8-1.8c-0.7-1.5-0.1-3.3 1.4-4 1.5-0.6 3.3 0 4 1.5l0.8 1.8c0.7 1.5 0.1 3.3-1.4 4q-0.6 0.3-1.3 0.3zm570.9-5.7q-0.7 0-1.3-0.3c-1.5-0.7-2.2-2.4-1.5-3.9l0.8-1.9c0.7-1.5 2.4-2.2 3.9-1.5 1.6 0.6 2.3 2.4 1.6 3.9l-0.8 1.9c-0.5 1.1-1.6 1.8-2.7 1.8zm-577.2-8.9c-1.2 0-2.3-0.8-2.8-1.9l-0.8-1.9c-0.6-1.5 0.2-3.3 1.7-3.9 1.6-0.6 3.3 0.1 3.9 1.7l0.7 1.8c0.7 1.6-0.1 3.3-1.6 3.9q-0.6 0.3-1.1 0.3zm583.2-5.9q-0.5 0-1-0.2c-1.6-0.6-2.3-2.4-1.8-3.9l0.7-1.9c0.6-1.5 2.4-2.3 3.9-1.7 1.6 0.5 2.3 2.3 1.8 3.8l-0.8 1.9c-0.4 1.2-1.5 2-2.8 2zm-588.9-9.1c-1.2 0-2.4-0.8-2.8-2l-0.6-2c-0.6-1.5 0.3-3.2 1.8-3.8 1.6-0.5 3.3 0.4 3.8 1.9l0.7 1.9c0.5 1.6-0.3 3.3-1.9 3.8q-0.5 0.2-1 0.2zm594.3-6.1q-0.5 0-1-0.1c-1.5-0.5-2.4-2.2-1.9-3.8l0.6-1.9c0.5-1.6 2.2-2.4 3.8-2 1.6 0.5 2.4 2.2 1.9 3.8l-0.6 1.9c-0.4 1.3-1.6 2.1-2.8 2.1zm-599.1-9.2c-1.3 0-2.5-0.8-2.9-2.1l-0.5-2c-0.5-1.6 0.5-3.2 2-3.7 1.7-0.4 3.3 0.5 3.7 2.1l0.6 1.9c0.5 1.6-0.5 3.2-2.1 3.7q-0.4 0.1-0.8 0.1zm603.6-6.1q-0.4 0-0.8-0.1c-1.6-0.5-2.5-2.1-2.1-3.7l0.5-1.9c0.4-1.6 2.1-2.6 3.7-2.2 1.6 0.5 2.5 2.1 2.1 3.7l-0.5 1.9c-0.4 1.4-1.6 2.3-2.9 2.3zm-607.6-9.3c-1.4 0-2.6-1-3-2.4l-0.4-1.9c-0.4-1.6 0.6-3.3 2.3-3.6 1.6-0.4 3.2 0.6 3.5 2.2l0.5 2c0.4 1.6-0.6 3.2-2.3 3.6q-0.3 0.1-0.6 0.1zm611.3-6.3q-0.3 0-0.6 0c-1.6-0.4-2.7-2-2.3-3.6l0.4-1.9c0.3-1.7 1.9-2.7 3.5-2.4 1.7 0.4 2.7 1.9 2.4 3.6l-0.4 1.9c-0.3 1.5-1.6 2.4-3 2.4zm-614.6-9.4c-1.4 0-2.7-1-2.9-2.5l-0.4-2c-0.3-1.6 0.8-3.1 2.5-3.4 1.6-0.3 3.1 0.8 3.4 2.4l0.4 2c0.3 1.6-0.8 3.2-2.5 3.4q-0.2 0.1-0.5 0.1zm617.6-6.3q-0.3 0-0.5 0c-1.7-0.3-2.8-1.8-2.5-3.5l0.3-1.9c0.2-1.7 1.8-2.8 3.4-2.5 1.7 0.2 2.8 1.7 2.5 3.4l-0.3 2c-0.2 1.4-1.5 2.5-2.9 2.5zm-620-9.5c-1.5 0-2.8-1.1-3-2.6l-0.3-2c-0.2-1.7 1-3.2 2.7-3.4 1.6-0.2 3.1 1 3.3 2.6l0.3 2c0.2 1.7-1 3.2-2.6 3.4q-0.2 0-0.4 0zm622.1-6.4q-0.2 0-0.4 0c-1.6-0.2-2.8-1.6-2.6-3.3l0.2-1.9c0.2-1.7 1.6-2.9 3.3-2.7 1.6 0.1 2.8 1.6 2.7 3.3l-0.2 2c-0.2 1.5-1.5 2.6-3 2.6zm-623.8-9.5c-1.5 0-2.8-1.2-3-2.8l-0.1-2c-0.1-1.7 1.1-3.1 2.8-3.2 1.6-0.1 3.1 1.1 3.2 2.8l0.1 2c0.2 1.6-1.1 3-2.7 3.2q-0.1 0-0.3 0zm625.1-6.4q-0.1 0-0.2 0c-1.6-0.1-2.9-1.5-2.8-3.2l0.1-1.9c0.1-1.7 1.5-3 3.1-2.9 1.7 0.1 3 1.5 2.9 3.2l-0.1 2c-0.1 1.6-1.4 2.8-3 2.8zm-625.9-9.6c-1.6 0-2.9-1.3-3-2.9v-2c-0.1-1.7 1.3-3.1 2.9-3.1q0 0 0.1 0c1.6 0 2.9 1.3 3 2.9v2c0.1 1.7-1.2 3.1-2.9 3.1q0 0-0.1 0zm626.4-6.4q0 0 0 0c-1.7 0-3-1.3-3-3v-2-0.8c0-1.7 1.3-3 3-3 1.6 0 3 1.3 3 3v0.8 2c0 1.7-1.4 3-3 3zm-626.4-9.6q0 0-0.1 0c-1.6 0-2.9-1.4-2.9-3.1l0.1-2c0-1.6 1.4-3 3-2.9 1.7 0.1 3 1.4 2.9 3.1v2c0 1.6-1.4 2.9-3 2.9zm626-7.2c-1.6 0-2.9-1.2-3-2.8l-0.1-2c0-1.7 1.2-3.1 2.9-3.2 1.7-0.1 3.1 1.2 3.1 2.9l0.1 2c0.1 1.6-1.2 3-2.8 3.1q-0.1 0-0.2 0zm-625.2-8.8q-0.1 0-0.2 0c-1.7-0.1-2.9-1.5-2.8-3.2l0.1-2c0.2-1.7 1.7-2.9 3.3-2.7 1.6 0.1 2.9 1.5 2.7 3.2l-0.1 2c-0.1 1.5-1.5 2.7-3 2.7zm624.1-7.1c-1.5 0-2.8-1.2-3-2.7l-0.2-2c-0.2-1.7 1-3.1 2.7-3.3 1.6-0.2 3.1 1 3.3 2.7l0.2 2c0.1 1.6-1.1 3.1-2.7 3.2q-0.2 0.1-0.3 0.1zm-622.5-8.8q-0.2 0-0.4 0c-1.6-0.2-2.8-1.7-2.6-3.3l0.3-2c0.2-1.7 1.7-2.9 3.3-2.6 1.7 0.2 2.8 1.7 2.6 3.3l-0.2 2c-0.2 1.5-1.5 2.6-3 2.6zm620.5-7.1c-1.4 0-2.7-1.1-2.9-2.6l-0.3-1.9c-0.3-1.7 0.8-3.2 2.5-3.5 1.6-0.2 3.1 0.9 3.4 2.5l0.3 2c0.3 1.7-0.9 3.2-2.5 3.5q-0.2 0-0.5 0zm-618.1-8.7q-0.3 0-0.6 0c-1.6-0.3-2.7-1.9-2.4-3.5l0.4-2c0.3-1.6 1.8-2.7 3.5-2.4 1.6 0.3 2.7 1.9 2.4 3.5l-0.4 1.9c-0.2 1.5-1.5 2.5-2.9 2.5zm615.4-7.1c-1.4 0-2.7-1-3-2.4l-0.4-1.9c-0.3-1.6 0.7-3.2 2.4-3.6 1.6-0.3 3.2 0.7 3.5 2.4l0.4 1.9c0.3 1.7-0.7 3.3-2.3 3.6q-0.3 0-0.6 0zm-612.2-8.6q-0.4 0-0.7 0c-1.6-0.4-2.6-2-2.2-3.6l0.4-2c0.4-1.6 2-2.6 3.6-2.2 1.6 0.4 2.6 2 2.3 3.6l-0.5 1.9c-0.3 1.4-1.6 2.3-2.9 2.3zm608.6-7c-1.3 0-2.6-0.9-2.9-2.2l-0.5-1.9c-0.4-1.6 0.5-3.3 2.1-3.7 1.6-0.4 3.3 0.5 3.7 2.1l0.5 2c0.4 1.6-0.6 3.2-2.2 3.7q-0.3 0-0.7 0zm-604.6-8.4q-0.4 0-0.8-0.2c-1.6-0.4-2.6-2.1-2.1-3.7l0.6-1.9c0.4-1.6 2.1-2.5 3.7-2 1.6 0.4 2.5 2.1 2 3.7l-0.5 1.9c-0.4 1.3-1.6 2.2-2.9 2.2zm600.2-6.9c-1.2 0-2.4-0.9-2.8-2.2l-0.6-1.8c-0.5-1.6 0.3-3.3 1.9-3.8 1.6-0.5 3.3 0.4 3.8 1.9l0.6 2c0.5 1.6-0.4 3.2-2 3.7q-0.4 0.2-0.9 0.2zm-595.4-8.4q-0.5 0-1-0.2c-1.5-0.5-2.4-2.2-1.8-3.8l0.6-1.9c0.6-1.5 2.3-2.4 3.8-1.8 1.6 0.5 2.4 2.2 1.9 3.8l-0.7 1.9c-0.4 1.2-1.6 2-2.8 2zm590.3-6.8c-1.2 0-2.4-0.7-2.8-1.9l-0.7-1.9c-0.6-1.6 0.2-3.3 1.7-3.9 1.6-0.5 3.3 0.2 3.9 1.8l0.7 1.9c0.6 1.5-0.2 3.2-1.8 3.8q-0.5 0.2-1 0.2zm-584.7-8.2q-0.6 0-1.1-0.2c-1.6-0.7-2.3-2.4-1.7-3.9l0.8-1.9c0.6-1.5 2.3-2.3 3.9-1.7 1.5 0.7 2.2 2.4 1.6 3.9l-0.7 1.9c-0.5 1.2-1.6 1.9-2.8 1.9zm578.8-6.6c-1.2 0-2.3-0.7-2.8-1.8l-0.8-1.8c-0.6-1.6 0.1-3.3 1.6-4 1.5-0.7 3.3 0 3.9 1.6l0.8 1.8c0.7 1.5 0 3.3-1.5 4q-0.6 0.2-1.2 0.2zm-572.5-8.1q-0.6 0-1.2-0.3c-1.5-0.7-2.2-2.5-1.5-4l0.9-1.8c0.7-1.5 2.5-2.2 4-1.5 1.5 0.7 2.1 2.5 1.4 4l-0.8 1.8c-0.5 1.1-1.6 1.8-2.8 1.8zm565.8-6.4c-1.1 0-2.2-0.6-2.7-1.7q-0.4-0.9-0.9-1.8c-0.7-1.4-0.1-3.2 1.4-4 1.5-0.7 3.3-0.1 4 1.4q0.5 0.9 0.9 1.8c0.7 1.5 0.1 3.3-1.4 4q-0.6 0.3-1.3 0.3zm-558.7-8q-0.7 0-1.4-0.3c-1.4-0.8-2-2.6-1.2-4.1l0.9-1.8c0.8-1.4 2.7-2 4.1-1.2 1.5 0.8 2 2.6 1.2 4.1l-0.9 1.7c-0.5 1-1.6 1.6-2.7 1.6zm551.3-6.2c-1 0-2.1-0.5-2.6-1.5l-1-1.7c-0.8-1.5-0.3-3.3 1.2-4.1 1.4-0.8 3.2-0.3 4.1 1.1l0.9 1.8c0.8 1.4 0.3 3.3-1.1 4.1q-0.7 0.4-1.5 0.3zm-543.4-7.8q-0.8 0-1.6-0.4c-1.4-0.8-1.9-2.7-1-4.1l1-1.7c0.9-1.5 2.7-1.9 4.1-1.1 1.5 0.9 1.9 2.7 1.1 4.2l-1 1.7c-0.6 0.9-1.6 1.4-2.6 1.4zm535.3-5.9c-1 0-2-0.5-2.5-1.4l-1.1-1.7c-0.9-1.4-0.5-3.2 0.9-4.1 1.4-0.9 3.3-0.5 4.2 0.9l1 1.7c0.9 1.4 0.5 3.3-0.9 4.1-0.5 0.3-1.1 0.5-1.6 0.5zm-526.8-7.6c-0.6 0-1.1-0.2-1.7-0.5-1.3-0.9-1.7-2.8-0.8-4.2q0.6-0.8 1.1-1.7c1-1.3 2.8-1.7 4.2-0.8 1.4 1 1.7 2.8 0.8 4.2q-0.6 0.8-1.1 1.6c-0.6 0.9-1.5 1.4-2.5 1.4zm518-5.7c-1 0-1.9-0.5-2.5-1.3l-1.1-1.6c-1-1.4-0.6-3.3 0.7-4.2 1.4-1 3.2-0.7 4.2 0.7l1.2 1.6c0.9 1.4 0.6 3.3-0.8 4.2-0.5 0.4-1.1 0.6-1.7 0.6zm-508.8-7.4c-0.6 0-1.2-0.2-1.8-0.6-1.3-1-1.6-2.9-0.6-4.2l1.2-1.6c1-1.4 2.9-1.6 4.2-0.6 1.3 1 1.6 2.9 0.6 4.2l-1.2 1.6c-0.6 0.8-1.5 1.2-2.4 1.2zm499.3-5.5c-0.9 0-1.8-0.4-2.4-1.2l-1.2-1.5c-1-1.3-0.8-3.2 0.5-4.2 1.3-1.1 3.2-0.8 4.2 0.5l1.3 1.6c1 1.3 0.8 3.2-0.5 4.2-0.6 0.4-1.2 0.6-1.9 0.6zm-489.4-7.1c-0.7 0-1.4-0.3-1.9-0.7-1.3-1.1-1.5-3-0.4-4.2l1.2-1.6c1.1-1.3 3-1.4 4.3-0.4 1.2 1.1 1.4 3 0.4 4.2l-1.3 1.6c-0.6 0.7-1.5 1.1-2.3 1.1zm479.3-5.3c-0.8 0-1.7-0.3-2.3-1l-1.3-1.5c-1.1-1.3-0.9-3.2 0.3-4.2 1.3-1.1 3.2-1 4.3 0.2l1.3 1.6c1.1 1.2 0.9 3.1-0.3 4.2-0.6 0.5-1.3 0.7-2 0.7zm-468.8-6.8c-0.8 0-1.5-0.3-2.1-0.8-1.2-1.1-1.3-3-0.2-4.2l1.4-1.5c1.1-1.2 3-1.3 4.2-0.2 1.3 1.1 1.3 3 0.2 4.2l-1.3 1.5c-0.6 0.7-1.4 1-2.2 1zm458.1-5c-0.8 0-1.6-0.3-2.2-1l-1.4-1.4c-1.1-1.2-1.1-3.1 0.1-4.2 1.2-1.2 3.1-1.1 4.2 0l1.4 1.5c1.2 1.2 1.1 3.1-0.1 4.2-0.5 0.6-1.3 0.9-2 0.9zm-447.1-6.6c-0.7 0-1.5-0.2-2.1-0.8-1.2-1.2-1.1-3.1 0-4.3l1.5-1.4c1.1-1.2 3-1.1 4.2 0 1.2 1.2 1.1 3.1 0 4.3l-1.5 1.4c-0.5 0.6-1.3 0.8-2.1 0.8zm435.7-4.7c-0.7 0-1.4-0.3-2-0.8l-1.5-1.4c-1.2-1.1-1.2-3-0.1-4.2 1.1-1.2 3-1.3 4.2-0.2l1.5 1.4c1.2 1.1 1.3 3 0.1 4.2-0.6 0.7-1.4 1-2.2 1zm-424-6.2c-0.8 0-1.7-0.3-2.2-1-1.2-1.2-1-3.1 0.2-4.2l1.4-1.3c1.2-1.1 3.2-1 4.3 0.2 1.1 1.3 1 3.1-0.2 4.2l-1.5 1.3c-0.6 0.5-1.3 0.8-2 0.8zm412.1-4.5c-0.6 0-1.3-0.3-1.9-0.7l-1.5-1.3c-1.3-1.1-1.4-3-0.4-4.2 1.1-1.3 3-1.5 4.3-0.4l1.5 1.3c1.3 1.1 1.4 3 0.3 4.2-0.6 0.7-1.4 1.1-2.3 1.1zm-399.9-5.9c-0.9 0-1.8-0.3-2.4-1.1-1-1.3-0.8-3.1 0.5-4.2l1.6-1.3c1.3-1 3.1-0.8 4.2 0.5 1 1.3 0.8 3.2-0.5 4.2l-1.5 1.3c-0.6 0.4-1.3 0.6-1.9 0.6zm387.5-4.2c-0.6 0-1.3-0.2-1.8-0.6l-1.6-1.2c-1.3-1-1.6-2.9-0.6-4.2 1-1.4 2.9-1.6 4.2-0.6l1.7 1.2c1.3 1 1.5 2.9 0.5 4.2-0.6 0.8-1.5 1.2-2.4 1.2zm-374.8-5.5c-1 0-1.9-0.4-2.5-1.2-0.9-1.4-0.6-3.2 0.7-4.2l1.6-1.2c1.4-0.9 3.3-0.6 4.2 0.7 1 1.4 0.7 3.2-0.7 4.2l-1.6 1.2c-0.5 0.3-1.1 0.5-1.7 0.5zm361.9-4c-0.6 0-1.2-0.1-1.7-0.5l-1.6-1.1c-1.4-1-1.8-2.8-0.8-4.2 0.9-1.4 2.8-1.7 4.1-0.8l1.7 1.2c1.4 0.9 1.7 2.8 0.8 4.1-0.6 0.9-1.6 1.3-2.5 1.3zm-348.8-5c-0.9 0-1.9-0.5-2.5-1.4-0.9-1.4-0.5-3.2 0.9-4.1q0.8-0.6 1.7-1.1c1.4-0.9 3.2-0.5 4.1 0.9 0.9 1.4 0.5 3.2-0.9 4.1q-0.8 0.6-1.6 1.1c-0.5 0.3-1.1 0.5-1.7 0.5zm335.4-3.7q-0.8 0-1.6-0.5-0.8-0.5-1.7-1c-1.4-0.9-1.8-2.7-1-4.1 0.9-1.5 2.8-1.9 4.2-1q0.8 0.5 1.7 1c1.4 0.9 1.8 2.8 1 4.2-0.6 0.9-1.6 1.4-2.6 1.4zm-321.8-4.7c-1 0-2-0.5-2.6-1.5-0.8-1.4-0.3-3.2 1.1-4.1q0.9-0.5 1.8-1c1.4-0.8 3.3-0.3 4.1 1.1 0.8 1.5 0.3 3.3-1.2 4.1q-0.8 0.5-1.7 1-0.7 0.4-1.5 0.4zm308-3.4q-0.8 0-1.5-0.4-0.8-0.5-1.7-0.9c-1.5-0.8-2-2.7-1.2-4.1 0.8-1.5 2.6-2 4.1-1.2q0.8 0.5 1.7 1c1.5 0.8 2 2.6 1.2 4-0.5 1-1.6 1.6-2.6 1.6zm-294-4.2c-1 0-2.1-0.6-2.6-1.7-0.8-1.4-0.2-3.3 1.3-4l1.8-0.9c1.5-0.8 3.3-0.2 4 1.3 0.7 1.5 0.1 3.3-1.3 4l-1.8 0.9q-0.7 0.4-1.4 0.4zm279.8-3.2q-0.7 0-1.3-0.3l-1.8-0.9c-1.5-0.7-2.2-2.5-1.5-4 0.8-1.5 2.6-2.1 4-1.4l1.9 0.9c1.5 0.7 2.1 2.5 1.4 4-0.6 1.1-1.6 1.7-2.7 1.7zm-265.4-3.8c-1.1 0-2.2-0.6-2.7-1.7-0.7-1.6 0-3.3 1.5-4l1.8-0.8c1.5-0.7 3.3 0 4 1.5 0.7 1.5 0 3.3-1.6 4l-1.7 0.8q-0.7 0.2-1.3 0.2zm250.8-2.8q-0.6 0-1.2-0.3l-1.8-0.7c-1.6-0.7-2.3-2.4-1.7-4 0.7-1.5 2.4-2.2 4-1.6l1.8 0.8c1.6 0.7 2.3 2.4 1.6 3.9-0.5 1.2-1.6 1.9-2.7 1.9zm-236.1-3.4c-1.2 0-2.3-0.7-2.8-1.9-0.6-1.5 0.2-3.3 1.7-3.9l1.9-0.7c1.6-0.6 3.3 0.2 3.9 1.7 0.6 1.6-0.2 3.3-1.7 3.9l-1.9 0.7q-0.5 0.2-1.1 0.2zm221.2-2.5q-0.6 0-1.1-0.2l-1.8-0.6c-1.6-0.6-2.4-2.3-1.9-3.9 0.6-1.5 2.3-2.4 3.9-1.8l1.9 0.7c1.5 0.6 2.3 2.3 1.8 3.8-0.5 1.3-1.6 2-2.8 2zm-206.1-2.9c-1.3 0-2.5-0.8-2.9-2-0.5-1.6 0.3-3.3 1.9-3.8l1.9-0.7c1.6-0.5 3.3 0.4 3.8 2 0.5 1.5-0.3 3.2-1.9 3.7l-1.9 0.7q-0.5 0.1-0.9 0.1zm190.8-2.2q-0.4 0-0.8-0.1l-1.9-0.6c-1.6-0.5-2.5-2.1-2-3.7 0.4-1.6 2.1-2.5 3.7-2l1.9 0.5c1.6 0.5 2.5 2.2 2 3.8-0.4 1.3-1.6 2.1-2.9 2.1zm-175.5-2.4c-1.3 0-2.6-0.9-2.9-2.2-0.5-1.6 0.5-3.3 2.1-3.7l1.9-0.6c1.6-0.4 3.3 0.6 3.7 2.2 0.4 1.6-0.5 3.2-2.1 3.6l-1.9 0.5q-0.4 0.2-0.8 0.2zm160.1-1.9q-0.3 0-0.7-0.1l-1.9-0.5c-1.6-0.3-2.6-2-2.2-3.6 0.4-1.6 2-2.6 3.6-2.2l2 0.5c1.6 0.4 2.5 2 2.1 3.6-0.3 1.4-1.5 2.3-2.9 2.3zm-144.6-2c-1.4 0-2.6-1-2.9-2.4-0.4-1.6 0.6-3.2 2.2-3.5l2-0.5c1.6-0.3 3.2 0.7 3.6 2.3 0.3 1.7-0.7 3.3-2.3 3.6l-2 0.4q-0.3 0.1-0.6 0.1zm129-1.5q-0.3 0-0.5 0l-2-0.4c-1.6-0.3-2.7-1.9-2.4-3.5 0.3-1.7 1.9-2.7 3.5-2.4l2 0.4c1.6 0.3 2.7 1.9 2.4 3.5-0.3 1.4-1.6 2.4-3 2.4zm-113.3-1.6c-1.4 0-2.7-1-3-2.5-0.2-1.6 0.9-3.1 2.5-3.4l2-0.4c1.6-0.2 3.2 0.9 3.4 2.5 0.3 1.7-0.8 3.2-2.5 3.5l-1.9 0.3q-0.3 0-0.5 0zm97.6-1.1q-0.2 0-0.5 0l-1.9-0.3c-1.7-0.2-2.8-1.7-2.6-3.4 0.2-1.6 1.8-2.7 3.4-2.5l2 0.3c1.6 0.2 2.8 1.7 2.5 3.3-0.2 1.5-1.5 2.6-2.9 2.6zm-81.8-1.1c-1.5 0-2.8-1.1-3-2.7-0.1-1.6 1-3.1 2.7-3.3l2-0.2c1.6-0.2 3.1 1 3.3 2.6 0.2 1.7-1 3.2-2.7 3.3l-1.9 0.3q-0.2 0-0.4 0zm65.9-0.8q-0.2 0-0.3 0l-2-0.2c-1.6-0.1-2.8-1.5-2.7-3.2 0.1-1.6 1.6-2.9 3.2-2.7l2.1 0.2c1.6 0.1 2.8 1.6 2.7 3.2-0.2 1.6-1.5 2.7-3 2.7zm-49.9-0.7c-1.6 0-2.9-1.2-3-2.8-0.1-1.6 1.1-3 2.8-3.1l2-0.2c1.7-0.1 3 1.2 3.1 2.8 0.1 1.7-1.1 3.1-2.8 3.2l-2 0.1q-0.1 0-0.1 0zm33.9-0.3q0 0-0.1 0l-2-0.1c-1.6-0.1-2.9-1.5-2.9-3.1 0.1-1.7 1.5-3.1 3.1-2.9l2.1 0.1c1.6 0 2.9 1.4 2.8 3.1 0 1.6-1.4 2.9-3 2.9zm-18-0.3c-1.6 0-2.9-1.3-3-2.9 0-1.7 1.3-3.1 3-3.1h2q0 0 0 0c1.7 0 3 1.3 3 3 0 1.6-1.3 3-2.9 3h-2q0 0-0.1 0z"/>
				</g>
				<g id="&lt;Group&gt;">
					<path id="&lt;Path&gt;" class="s1" d="m513.4 139.9c0 62.7-50.7 113.5-113.4 113.5-62.7 0-113.4-50.8-113.4-113.5 0-62.6 50.7-113.4 113.4-113.4 62.7 0 113.4 50.8 113.4 113.4z"/>
					<path id="&lt;Path&gt;" class="s1" d="m513.4 661.5c0 62.7-50.7 113.4-113.4 113.4-62.7 0-113.4-50.7-113.4-113.4 0-62.7 50.7-113.4 113.4-113.4 62.7 0 113.4 50.7 113.4 113.4z"/>
					<path id="&lt;Path&gt;" class="s2" d="m262.6 540.9c0 58.2-47.2 105.3-105.3 105.3-58.2 0-105.4-47.1-105.4-105.3 0-58.2 47.2-105.4 105.4-105.4 58.1 0 105.3 47.2 105.3 105.4z"/>
					<path id="&lt;Path&gt;" class="s3" d="m751.8 540.9c0 58.2-47.2 105.3-105.3 105.3-58.2 0-105.4-47.1-105.4-105.3 0-58.2 47.2-105.4 105.4-105.4 58.1 0 105.3 47.2 105.3 105.4z"/>
					<path id="&lt;Path&gt;" class="s3" d="m260.6 272.9c0 58.2-47.2 105.4-105.3 105.4-58.2 0-105.4-47.2-105.4-105.4 0-58.2 47.2-105.3 105.4-105.3 58.1 0 105.3 47.1 105.3 105.3z"/>
					<path id="&lt;Path&gt;" class="s2" d="m749.8 272.9c0 58.2-47.2 105.4-105.3 105.4-58.2 0-105.4-47.2-105.4-105.4 0-58.2 47.2-105.3 105.4-105.3 58.1 0 105.3 47.1 105.3 105.3z"/>
				</g>
			</g>
			<g id="&lt;Group&gt;">
				<g id="&lt;Clip Group&gt;" clip-path="url(#cp1)">
					<path id="&lt;Path&gt;" class="s4" d="m581.6 397.1c0 96.6-78.3 174.9-174.8 174.9-96.6 0-174.9-78.3-174.9-174.9 0-96.5 78.3-174.8 174.9-174.8 96.5 0 174.8 78.3 174.8 174.8z"/>
					<g id="&lt;Group&gt;">
						<g id="&lt;Group&gt;">
							<path id="&lt;Path&gt;" class="s5" d="m538.9 562.4l-126.5 30.5-141.5-30.5c0 0 46.6-35.1 58.9-45.7 12.3-10.7 24.5-19.8 29.9-29 1.4-2.3 2.6-4.4 3.6-6.5 3.1-6.3 4.6-12 3.3-19.9-0.3-2.1-0.9-4-1.9-6-5.5-11.6-20.5-23.5-27.3-45.1-2.7-8.3-5.7-35.6-5.7-35.6l62.9-13.8 72.8-16.1c0 0 11.6 15.1 12.3 20.2 0.7 5-4.5 7.6-3.4 12.6 0.7 3.9 14 19 19.9 25.6 0.6 0.7 0.9 1.8 0.8 2.8-0.1 1-0.7 1.9-1.6 2.4l-10.7 6.7 1.6 11.3-4.1 4.4 1.6 5.4-3.1 6c2.5 5.6 5.5 14.3 3.1 20.1-7.1 17.2-27.7 1.6-32.4 26.1-0.9 4.7 2.7 14.7 9 22.9 2.2 2.9 4.8 5.6 7.7 7.7 10.8 8.1 42 9.6 70.8 43.5z"/>
							<path id="&lt;Path&gt;" class="s6" d="m427 390c1.8-8.1 9-15.5 15-21.5l-47.4-7.7-62.9 13.8c0 0 3 27.3 5.7 35.6 6.5 20.8 18.1 31.9 24 43.1 0.4 0.8 2.4 2.3 3.3 1.9 5.4-2.3 10.4-7.4 11.2-13 0.8-5.1 1.6-11.3 2.1-17q-0.7-0.9-1.4-1.9c-7.8-11.3-7.2-25.2 1.2-31 8.1-5.5 19.1-0.4 28.3 8.6 5.9 5.8 11.3 11.3 11.3 11.3l11.3-2.2c0 0-3.6-11.7-1.7-20z"/>
							<path id="&lt;Path&gt;" class="s7" d="m538.9 562.4l-126.5 30.5-141.5-30.5c0 0 46.6-35.1 58.9-45.7 12.3-10.7 24.5-19.8 29.9-29 1.4-2.3 2.6-4.4 3.6-6.5 18.3 30 75.6 51.1 96.8 30h0.3c2.2 2.9 4.8 5.6 7.7 7.7 10.8 8.1 42 9.6 70.8 43.5z"/>
							<path id="&lt;Path&gt;" class="s8" d="m414.3 584.3l-23.9 5.8c0 0-27.4-57-67.6-67.7-0.7-0.2-0.4-2.6 0.1-3.1 2-1.8 8.5-7.4 11.1-9.6 0.9-0.7 2.4-1.1 4-1.2l1.3 0.1c26.5-4.9 68.3 48.4 75 75.7z"/>
						</g>
						<g id="&lt;Group&gt;">
							<path id="&lt;Path&gt;" class="s9" d="m417.8 376.1l97.5-17.2c5.4-0.9 9-6.1 8.1-11.5-1.2-7.1-4.6-14.9-10.1-19.7-2-1.7-4.5-2.6-7.1-2.5l-96.7 4c-78.5 16.5-103.9 28-101.5 42.1 2.9 16.1 57.7 15.8 109.8 4.8z"/>
							<path id="&lt;Path&gt;" class="s10" d="m478.2 330.2l28.2-1.1c0.8 0 1.5 0.3 2 0.9 3.9 4.2 7.8 12.4 8.9 18.4 0.2 1.4-0.7 2.7-2.2 3l-116.4 20.5z"/>
							<path id="&lt;Path&gt;" class="s9" d="m316.2 365.7c4.8 26.8 170.5-2.4 165.8-29.3-8.1-45.7-48.2-79-97.9-70.2-49.7 8.8-75.9 53.7-67.9 99.5z"/>
							<path id="&lt;Path&gt;" class="s10" d="m478.7 347.9c-1.6 0.2-3.1-0.8-3.4-2.4-9-47.5-45.7-75.4-89.1-67.7-1.7 0.3-3.2-0.8-3.5-2.4-0.3-1.7 0.8-3.2 2.4-3.5 46.9-8.3 86.4 21.5 96.1 72.4 0.3 1.7-0.8 3.2-2.4 3.5q0 0.1-0.1 0.1z"/>
							<path id="&lt;Path&gt;" class="s11" d="m329.8 359.7q-0.3 0.1-0.5 0.1c-1.7 0-3-1.3-3.1-3-0.7-38.3 22.2-65.2 61.2-72.1 28.2-5 52.4 2.7 68.3 21.6 1 1.3 0.9 3.2-0.4 4.3-1.3 1-3.2 0.9-4.2-0.4-14.4-17.2-36.7-24.1-62.7-19.6-36.3 6.5-56.8 30.5-56.2 66.1 0.1 1.5-1 2.8-2.4 3z"/>
							<path id="&lt;Path&gt;" class="s11" d="m336.6 365.8c3.9 22.1 130.1-0.2 126.3-22.3-6.7-37.5-38.5-49.5-72.8-43.4-34.3 6-60.1 28.1-53.5 65.7z"/>
							<g id="&lt;Group&gt;">
								<path id="&lt;Path&gt;" class="s9" d="m463 354.3l-5.9-18.4-14.7 7 4.3 17.6z"/>
								<path id="&lt;Path&gt;" class="s9" d="m340.1 376l-0.7-19.3 16.2 1.5 2.1 18.5z"/>
								<path id="&lt;Path&gt;" class="s9" d="m392.6 373.8l-2.3-18.7 9.2-1.7 9.2-1.6 4.2 18.4z"/>
							</g>
							<g id="&lt;Group&gt;">
								<g id="&lt;Group&gt;">
									<path id="&lt;Path&gt;" class="s9" d="m389.4 319.1c0.4 2.2 2.4 3.6 4.6 3.2 2.2-0.3 3.7-2.4 3.3-4.6-0.4-2.2-2.5-3.6-4.7-3.3-2.1 0.4-3.6 2.5-3.2 4.7z"/>
									<path id="&lt;Path&gt;" class="s9" d="m403.8 318.6c0.4 2.2 2.5 3.6 4.7 3.2 2.2-0.4 3.6-2.4 3.2-4.6-0.3-2.2-2.4-3.7-4.6-3.3-2.2 0.4-3.7 2.5-3.3 4.7z"/>
									<path id="&lt;Path&gt;" class="s9" d="m383.7 322.3c0.4 2.3-1.1 4.5-3.4 4.9-2.2 0.4-4.4-1.1-4.8-3.4-0.4-2.3 1.1-4.5 3.4-4.9 2.3-0.4 4.4 1.1 4.8 3.4z"/>
								</g>
								<g id="&lt;Group&gt;">
									<path id="&lt;Path&gt;" class="s12" d="m389.1 317.4c0.4 2.2 2.5 3.7 4.6 3.3 2.2-0.4 3.7-2.5 3.3-4.7-0.4-2.1-2.5-3.6-4.7-3.2-2.1 0.4-3.6 2.5-3.2 4.6z"/>
									<path id="&lt;Path&gt;" class="s12" d="m403.5 316.9c0.4 2.2 2.5 3.7 4.7 3.3 2.2-0.4 3.6-2.5 3.2-4.7-0.3-2.2-2.4-3.6-4.6-3.2-2.2 0.4-3.6 2.4-3.3 4.6z"/>
									<path id="&lt;Path&gt;" class="s12" d="m383.2 320.5c0.4 2.2-1 4.3-3.2 4.7-2.2 0.3-4.3-1.1-4.7-3.3-0.4-2.2 1.1-4.3 3.3-4.7 2.2-0.3 4.3 1.1 4.6 3.3z"/>
								</g>
							</g>
						</g>
					</g>
				</g>
				<g id="&lt;Group&gt;">
					<g id="&lt;Group&gt;">
						<g id="&lt;Group&gt;">
							<path id="&lt;Path&gt;" class="s6" d="m702 327.1h-0.4c-4.4 0-8-3.3-8.6-7.6l-4.9-42.3c-0.4-3.1 0.6-6.1 2.6-8.4 2.1-2.3 5-3.6 8.1-3.6h2.8c15 0 27.2-12.2 27.2-27.2 0-15.1-12.2-27.2-27.2-27.2h-75.2l-19 4.3v45.8l19 4.3h9.8c3.4 1.5 5.9 4.9 5.9 8.9 0 3.2-1.6 6-4 7.8h8.9c2.7 0 5 2 5.3 4.7l3.6 30.9c0.3 2.4-0.5 4.9-2.1 6.7-1.6 1.9-4 2.9-6.4 2.9z"/>
							<g id="&lt;Clip Group&gt;" clip-path="url(#cp2)">
								<g id="&lt;Group&gt;">
									<path id="&lt;Path&gt;" class="s13" d="m618.7 223.4h-16.7c-1.5 0-2.7-1.2-2.7-2.7 0-1.5 1.2-2.7 2.7-2.7h16.7c1.5 0 2.7 1.2 2.7 2.7 0 1.5-1.2 2.7-2.7 2.7z"/>
									<path id="&lt;Path&gt;" class="s13" d="m618.7 235.6h-16.7c-1.5 0-2.7-1.2-2.7-2.7 0-1.5 1.2-2.7 2.7-2.7h16.7c1.5 0 2.7 1.2 2.7 2.7 0 1.5-1.2 2.7-2.7 2.7z"/>
									<path id="&lt;Path&gt;" class="s13" d="m618.7 247.8h-16.7c-1.5 0-2.7-1.2-2.7-2.7 0-1.4 1.2-2.6 2.7-2.6h16.7c1.5 0 2.7 1.2 2.7 2.6 0 1.5-1.2 2.7-2.7 2.7z"/>
									<path id="&lt;Path&gt;" class="s13" d="m618.7 260.1h-16.7c-1.5 0-2.7-1.3-2.7-2.7 0-1.5 1.2-2.7 2.7-2.7h16.7c1.5 0 2.7 1.2 2.7 2.7 0 1.4-1.2 2.7-2.7 2.7z"/>
								</g>
								<g id="&lt;Group&gt;">
									<path id="&lt;Path&gt;" class="s14" d="m618.7 222.3h-16.7c-1.5 0-2.7-1.2-2.7-2.7 0-1.4 1.2-2.6 2.7-2.6h16.7c1.5 0 2.7 1.2 2.7 2.6 0 1.5-1.2 2.7-2.7 2.7z"/>
									<path id="&lt;Path&gt;" class="s14" d="m618.7 234.6h-16.7c-1.5 0-2.7-1.3-2.7-2.7 0-1.5 1.2-2.7 2.7-2.7h16.7c1.5 0 2.7 1.2 2.7 2.7 0 1.4-1.2 2.7-2.7 2.7z"/>
									<path id="&lt;Path&gt;" class="s14" d="m618.7 246.8h-16.7c-1.5 0-2.7-1.2-2.7-2.7 0-1.5 1.2-2.7 2.7-2.7h16.7c1.5 0 2.7 1.2 2.7 2.7 0 1.5-1.2 2.7-2.7 2.7z"/>
									<path id="&lt;Path&gt;" class="s14" d="m618.7 259h-16.7c-1.5 0-2.7-1.2-2.7-2.7 0-1.5 1.2-2.7 2.7-2.7h16.7c1.5 0 2.7 1.2 2.7 2.7 0 1.5-1.2 2.7-2.7 2.7z"/>
								</g>
							</g>
							<path id="&lt;Path&gt;" class="s13" d="m644.9 280q-0.2 0-0.4-0.1c-0.5-0.2-0.8-0.8-0.6-1.3q0.8-2.2 0.8-4.5 0-2.6-1-4.9c-0.2-0.6 0.1-1.2 0.6-1.4 0.6-0.3 1.2 0 1.4 0.5q1.2 2.8 1.2 5.8 0 2.7-1 5.2c-0.2 0.5-0.6 0.7-1 0.7z"/>
						</g>
						<path id="&lt;Path&gt;" class="s6" d="m600.9 256.3h-23.7v-36.7h23.7z"/>
						<g id="&lt;Clip Group&gt;" clip-path="url(#cp3)">
							<g id="&lt;Group&gt;">
								<path id="&lt;Path&gt;" class="s14" d="m588.5 229.3h-15c-1.5 0-2.7-1.2-2.7-2.7 0-1.5 1.2-2.7 2.7-2.7h15c1.5 0 2.7 1.2 2.7 2.7 0 1.5-1.2 2.7-2.7 2.7z"/>
								<path id="&lt;Path&gt;" class="s14" d="m588.5 240.1h-15c-1.5 0-2.7-1.2-2.7-2.7 0-1.5 1.2-2.7 2.7-2.7h15c1.5 0 2.7 1.2 2.7 2.7 0 1.5-1.2 2.7-2.7 2.7z"/>
								<path id="&lt;Path&gt;" class="s14" d="m588.5 251h-15c-1.5 0-2.7-1.2-2.7-2.7 0-1.5 1.2-2.7 2.7-2.7h15c1.5 0 2.7 1.2 2.7 2.7 0 1.5-1.2 2.7-2.7 2.7z"/>
							</g>
						</g>
						<path id="&lt;Path&gt;" class="s6" d="m577.2 219.6v36.7l-17.2-8-6.5-3v-14.7l6.5-3z"/>
						<path id="&lt;Path&gt;" class="s15" d="m600.9 254.1h6.5v-32.3h-6.5z"/>
						<path id="&lt;Path&gt;" class="s15" d="m560 227.6v4.2l-6.5 2.9v-4.1z"/>
						<path id="&lt;Path&gt;" class="s15" d="m553.5 236.9l6.5-2.1v13.5l-6.5-3z"/>
						<g id="&lt;Group&gt;">
							<g id="&lt;Group&gt;">
								<path id="&lt;Path&gt;" class="s13" d="m532.5 236.5v3l4.6 1.4h16.4v-5.9h-16.4z"/>
								<path id="&lt;Path&gt;" class="s16" d="m532.5 236.5v1.5c2.8 0 5.3-1.1 7.1-3h-2.5z"/>
							</g>
							<path id="&lt;Path&gt;" class="s15" d="m553.5 233.1h-5.4v3.8h5.4z"/>
							<path id="&lt;Path&gt;" class="s15" d="m548.1 239v3.8h5.4v-3.8z"/>
						</g>
						<path id="&lt;Path&gt;" class="s15" d="m722.2 239c-0.6 0-1.1-0.4-1.1-1 0-7.7-4.1-14.8-10.7-18.7-0.5-0.3-0.7-0.9-0.4-1.4 0.3-0.6 1-0.7 1.5-0.4 7.2 4.2 11.8 12.1 11.8 20.5 0 0.6-0.5 1-1.1 1z"/>
						<path id="&lt;Path&gt;" class="s17" d="m688.4 327.1c-2.7 0-5-2-5.4-4.7l-6-51.2c-0.1-1.5 0.3-3.1 1.4-4.2 1-1.2 2.5-1.8 4-1.8h19.2v-54.4h-75.2v54.4h37.6c2.7 0 5 2 5.3 4.7l6 51.2c0.2 1.5-0.3 3.1-1.3 4.2-1 1.2-2.5 1.8-4.1 1.8h-42.4c-4.8 0-8.6 3.9-8.6 8.6v15.1h83.1v-23.7z"/>
						<path id="&lt;Path&gt;" class="s18" d="m696.4 345.8h-68.1v-12.8h68.1z"/>
						<path id="&lt;Path&gt;" class="s17" d="m717.9 238c0 10.1-8.2 18.3-18.3 18.3-10.2 0-18.4-8.2-18.4-18.3 0-10.2 8.2-18.4 18.4-18.4 10.1 0 18.3 8.2 18.3 18.4z"/>
						<g id="&lt;Clip Group&gt;" clip-path="url(#cp4)">
							<g id="&lt;Group&gt;">
								<path id="&lt;Path&gt;" class="s6" d="m717.1 227.2h-17.5v-4.3h17.5z"/>
								<path id="&lt;Path&gt;" class="s6" d="m717.1 235.8h-17.5v-4.3h17.5z"/>
								<path id="&lt;Path&gt;" class="s6" d="m717.1 244.4h-17.5v-4.3h17.5z"/>
								<path id="&lt;Path&gt;" class="s6" d="m717.1 253h-17.5v-4.3h17.5z"/>
							</g>
						</g>
						<path id="&lt;Path&gt;" class="s13" d="m688 321.9c-0.8 0-1.5-0.6-1.6-1.5l-4.5-38.3c-0.1-0.9 0.6-1.7 1.4-1.8 0.9-0.1 1.7 0.5 1.8 1.4l4.5 38.4c0.1 0.9-0.5 1.7-1.4 1.8q-0.1 0-0.2 0z"/>
						<path id="&lt;Path&gt;" class="s19" d="m696.6 219.4h-62.4c-0.9 0-1.6-0.7-1.6-1.6 0-0.9 0.7-1.7 1.6-1.7h62.4c0.9 0 1.7 0.8 1.7 1.7 0 0.9-0.8 1.6-1.7 1.6z"/>
						<path id="&lt;Path&gt;" class="s19" d="m695.3 335.5h-66.4c-0.9 0-1.7-0.8-1.7-1.6 0-0.9 0.8-1.7 1.7-1.7h66.4c0.9 0 1.6 0.8 1.6 1.7 0 0.8-0.7 1.6-1.6 1.6z"/>
						<g id="&lt;Group&gt;">
							<g id="&lt;Group&gt;">
								<path id="&lt;Path&gt;" class="s19" d="m645.1 218.6c0 1.8-1.5 3.2-3.2 3.2-1.8 0-3.3-1.4-3.3-3.2 0-1.8 1.5-3.3 3.3-3.3 1.7 0 3.2 1.5 3.2 3.3z"/>
								<path id="&lt;Path&gt;" class="s6" d="m644.5 217.8c0 1.5-1.2 2.7-2.6 2.7-1.5 0-2.7-1.2-2.7-2.7 0-1.5 1.2-2.7 2.7-2.7 1.4 0 2.6 1.2 2.6 2.7z"/>
							</g>
							<g id="&lt;Group&gt;">
								<path id="&lt;Path&gt;" class="s19" d="m631 334.9c0 1.8-1.4 3.3-3.2 3.3-1.8 0-3.3-1.5-3.3-3.3 0-1.8 1.5-3.2 3.3-3.2 1.8 0 3.2 1.4 3.2 3.2z"/>
								<path id="&lt;Path&gt;" class="s6" d="m630.5 334.1c0 1.5-1.2 2.7-2.7 2.7-1.5 0-2.7-1.2-2.7-2.7 0-1.5 1.2-2.7 2.7-2.7 1.5 0 2.7 1.2 2.7 2.7z"/>
							</g>
							<g id="&lt;Group&gt;">
								<path id="&lt;Path&gt;" class="s19" d="m694.2 218.6c0 1.8-1.4 3.2-3.2 3.2-1.8 0-3.2-1.4-3.2-3.2 0-1.8 1.4-3.3 3.2-3.3 1.8 0 3.2 1.5 3.2 3.3z"/>
								<path id="&lt;Path&gt;" class="s6" d="m693.7 217.8c0 1.5-1.2 2.7-2.7 2.7-1.5 0-2.7-1.2-2.7-2.7 0-1.5 1.2-2.7 2.7-2.7 1.5 0 2.7 1.2 2.7 2.7z"/>
							</g>
						</g>
						<path id="&lt;Path&gt;" class="s18" d="m693.2 250.4h-59v-23.8h59z"/>
						<g id="&lt;Group&gt;">
							<path id="&lt;Path&gt;" class="s19" d="m647.6 259.9h-9.1c-1.5 0-2.7-1.2-2.7-2.7 0-1.5 1.2-2.7 2.7-2.7h9.1c1.5 0 2.7 1.2 2.7 2.7 0 1.5-1.2 2.7-2.7 2.7z"/>
							<path id="&lt;Path&gt;" class="s6" d="m647.6 258.8h-9.1c-1.5 0-2.7-1.2-2.7-2.7 0-1.4 1.2-2.6 2.7-2.6h9.1c1.5 0 2.7 1.2 2.7 2.6 0 1.5-1.2 2.7-2.7 2.7z"/>
						</g>
						<path id="&lt;Path&gt;" class="s16" d="m607.4 229.3h-6.5v-4.3h6.5z"/>
						<path id="&lt;Path&gt;" class="s16" d="m607.4 235.4h-6.5v-3.3h6.5z"/>
						<g id="&lt;Group&gt;">
							<path id="&lt;Path&gt;" class="s16" d="m560 231.8v3l-6.5 2.1v-2.2z"/>
							<path id="&lt;Path&gt;" class="s15" d="m577.2 224v5.3l-17.2 5.5v-3z"/>
							<path id="&lt;Path&gt;" class="s16" d="m560 245.5v-3.8h-6.5v0.9z"/>
							<path id="&lt;Path&gt;" class="s14" d="m577.2 253.3v-11.6h-17.2v3.8z"/>
						</g>
						<path id="&lt;Path&gt;" class="s17" d="m696.6 234.3h-66.1v-2.1h66.1z"/>
					</g>
					<g id="&lt;Group&gt;">
						<path id="&lt;Path&gt;" class="s13" d="m564.5 647.7h-86.9v-6.2h86.9l4.3 3.1z"/>
						<g id="&lt;Clip Group&gt;" clip-path="url(#cp5)">
							<g id="&lt;Group&gt;">
								<path id="&lt;Path&gt;" class="s16" d="m500.1 657.7l-3.3-2.3 15.7-22.5 3.4 2.3z"/>
								<path id="&lt;Path&gt;" class="s16" d="m513.2 657.7l-3.4-2.3 15.7-22.5 3.4 2.3z"/>
								<path id="&lt;Path&gt;" class="s16" d="m526.2 657.7l-3.4-2.3 15.7-22.5 3.4 2.3z"/>
								<path id="&lt;Path&gt;" class="s16" d="m539.3 657.7l-3.4-2.3 15.7-22.5 3.4 2.3z"/>
								<path id="&lt;Path&gt;" class="s16" d="m552.3 657.7l-3.4-2.3 15.7-22.5 3.4 2.3z"/>
							</g>
						</g>
						<g id="&lt;Group&gt;">
							<g id="&lt;Group&gt;">
								<path id="&lt;Path&gt;" class="s6" d="m434 679.2h-10.3v-9h-10.3v9h-10.4v4.7h5c0.9 0 1.7 0.4 2.3 1 0.6 0.7 0.9 1.6 0.8 2.4-1.1 9.9-1.4 18.1-1.4 26.3 0 9.2 0.4 18.5 1.8 30.2h-5.3v6.7h24.6v-6.7h-5.3c1.4-11.7 1.8-21 1.8-30.2 0-8.2-0.3-16.4-1.3-26.3-0.1-0.8 0.2-1.7 0.8-2.4 0.5-0.6 1.4-1 2.3-1h4.9z"/>
								<path id="&lt;Path&gt;" class="s13" d="m422.2 735.9c-0.6 0-1-0.5-1-1v-44.1c0-0.5 0.4-1 1-1 0.6 0 1 0.5 1 1v44.1c0 0.5-0.4 1-1 1z"/>
								<path id="&lt;Path&gt;" class="s13" d="m423.7 679.2h-10.3v-9h10.3z"/>
								<path id="&lt;Path&gt;" class="s16" d="m422.2 679.2h-2.4v-9h2.4z"/>
							</g>
							<path id="&lt;Path&gt;" class="s6" d="m302 730.1h0.5c4.1 0 7.7-3.1 8.2-7.3l4.7-40.6c0.4-2.9-0.6-5.8-2.5-8-2-2.3-4.8-3.5-7.7-3.5h-2.7c-14.4 0-26.1-11.7-26.1-26.1 0-14.4 11.7-26.1 26.1-26.1h107 18.2v52.2h-18.2-44.3c-3.3 1.4-5.6 4.7-5.6 8.5 0 3.1 1.5 5.8 3.8 7.5h-8.5c-2.6 0-4.8 2-5.2 4.6l-3.4 29.6c-0.3 2.3 0.4 4.7 2 6.4 1.6 1.8 3.8 2.8 6.2 2.8z"/>
							<path id="&lt;Path&gt;" class="s13" d="m356.8 684.9c-0.4 0-0.8-0.2-0.9-0.6q-1-2.5-1-5.1 0-2.9 1.2-5.5c0.2-0.5 0.8-0.8 1.3-0.5 0.5 0.2 0.8 0.8 0.6 1.3q-1 2.3-1 4.7 0 2.3 0.8 4.3c0.2 0.6 0 1.2-0.6 1.4q-0.2 0-0.4 0z"/>
						</g>
						<path id="&lt;Path&gt;" class="s6" d="m433.9 662.2h22.8v-35.2h-22.8z"/>
						<g id="&lt;Clip Group&gt;" clip-path="url(#cp6)">
							<g id="&lt;Group&gt;">
								<path id="&lt;Path&gt;" class="s14" d="m460.3 636.2h-14.5c-1.4 0-2.6-1.1-2.6-2.6 0-1.4 1.2-2.5 2.6-2.5h14.5c1.4 0 2.6 1.1 2.6 2.5 0 1.5-1.2 2.6-2.6 2.6z"/>
								<path id="&lt;Path&gt;" class="s14" d="m460.3 646.7h-14.5c-1.4 0-2.6-1.2-2.6-2.6 0-1.5 1.2-2.6 2.6-2.6h14.5c1.4 0 2.6 1.1 2.6 2.6 0 1.4-1.2 2.6-2.6 2.6z"/>
								<path id="&lt;Path&gt;" class="s14" d="m460.3 657.1h-14.5c-1.4 0-2.6-1.2-2.6-2.6 0-1.4 1.2-2.6 2.6-2.6h14.5c1.4 0 2.6 1.2 2.6 2.6 0 1.4-1.2 2.6-2.6 2.6z"/>
							</g>
						</g>
						<path id="&lt;Path&gt;" class="s6" d="m456.7 627v35.2l16.5-7.7 6.2-2.9v-14l-6.2-2.9z"/>
						<path id="&lt;Path&gt;" class="s15" d="m433.9 660.1h-6.2v-31h6.2z"/>
						<path id="&lt;Path&gt;" class="s15" d="m473.2 634.7v4l6.2 2.8v-3.9z"/>
						<path id="&lt;Path&gt;" class="s15" d="m479.4 643.6l-6.2-2v12.9l6.2-2.9z"/>
						<g id="&lt;Group&gt;">
							<path id="&lt;Path&gt;" class="s15" d="m479.4 639.9h5.2v3.7h-5.2z"/>
							<path id="&lt;Path&gt;" class="s15" d="m484.6 645.6v3.6h-5.2v-3.6z"/>
						</g>
						<path id="&lt;Path&gt;" class="s15" d="m282.7 645.6c-0.6 0-1-0.4-1-1 0-8.1 4.3-15.6 11.3-19.7 0.5-0.3 1.1-0.1 1.4 0.4 0.3 0.5 0.1 1.1-0.4 1.4-6.3 3.7-10.3 10.6-10.3 17.9 0 0.6-0.4 1-1 1z"/>
						<path id="&lt;Path&gt;" class="s20" d="m315.1 730.1c2.6 0 4.9-1.9 5.2-4.5l5.7-49.1c0.2-1.5-0.3-3-1.3-4.1-0.9-1.1-2.3-1.7-3.8-1.7h-18.4v-52.2h107v52.2h-70.9c-2.6 0-4.9 1.9-5.2 4.6l-5.7 49.1c-0.2 1.4 0.3 2.9 1.3 4 0.9 1.1 2.3 1.7 3.8 1.7h22.2c4.5 0 8.2 3.7 8.2 8.3v-0.1h-61.2v-8.2z"/>
						<path id="&lt;Path&gt;" class="s20" d="m286.8 644.6c0 9.7 7.9 17.6 17.6 17.6 9.7 0 17.6-7.9 17.6-17.6 0-9.7-7.9-17.6-17.6-17.6-9.7 0-17.6 7.9-17.6 17.6z"/>
						<g id="&lt;Clip Group&gt;" clip-path="url(#cp7)">
							<g id="&lt;Group&gt;">
								<path id="&lt;Path&gt;" class="s6" d="m287.6 634.2h16.8v-4.1h-16.8z"/>
								<path id="&lt;Path&gt;" class="s6" d="m287.6 642.5h16.8v-4.1h-16.8z"/>
								<path id="&lt;Path&gt;" class="s6" d="m287.6 650.8h16.8v-4.1h-16.8z"/>
								<path id="&lt;Path&gt;" class="s6" d="m287.6 659.1h16.8v-4.2h-16.8z"/>
							</g>
						</g>
						<path id="&lt;Path&gt;" class="s13" d="m315.5 725.1q-0.1 0-0.2 0c-0.9-0.1-1.5-0.9-1.4-1.7l4.3-36.9c0.1-0.8 0.9-1.4 1.8-1.3 0.8 0.1 1.4 0.8 1.3 1.7l-4.3 36.8c-0.1 0.8-0.8 1.4-1.5 1.4z"/>
						<path id="&lt;Path&gt;" class="s21" d="m402 626.8h-94.8c-0.9 0-1.5-0.7-1.5-1.6 0-0.9 0.6-1.5 1.5-1.5h94.8c0.8 0 1.5 0.6 1.5 1.5 0 0.9-0.7 1.6-1.5 1.6z"/>
						<g id="&lt;Group&gt;">
							<g id="&lt;Group&gt;">
								<path id="&lt;Path&gt;" class="s21" d="m391.6 626c0 1.7 1.3 3.1 3.1 3.1 1.7 0 3.1-1.4 3.1-3.1 0-1.7-1.4-3.1-3.1-3.1-1.8 0-3.1 1.4-3.1 3.1z"/>
								<path id="&lt;Path&gt;" class="s6" d="m392.1 625.2c0 1.4 1.1 2.6 2.6 2.6 1.4 0 2.5-1.2 2.5-2.6 0-1.4-1.1-2.6-2.5-2.6-1.5 0-2.6 1.2-2.6 2.6z"/>
							</g>
							<g id="&lt;Group&gt;">
								<path id="&lt;Path&gt;" class="s21" d="m309.5 626c0 1.7 1.4 3.1 3.1 3.1 1.7 0 3.1-1.4 3.1-3.1 0-1.7-1.4-3.1-3.1-3.1-1.7 0-3.1 1.4-3.1 3.1z"/>
								<path id="&lt;Path&gt;" class="s6" d="m310 625.2c0 1.4 1.2 2.6 2.6 2.6 1.4 0 2.6-1.2 2.6-2.6 0-1.4-1.2-2.6-2.6-2.6-1.4 0-2.6 1.2-2.6 2.6z"/>
							</g>
						</g>
						<path id="&lt;Path&gt;" class="s22" d="m310.6 656.6h91.4v-23h-91.4z"/>
						<g id="&lt;Group&gt;">
							<path id="&lt;Path&gt;" class="s21" d="m354.4 667.8h-8.7c-1.5 0-2.6-1.2-2.6-2.6 0-1.4 1.1-2.6 2.6-2.6h8.7c1.5 0 2.6 1.2 2.6 2.6 0 1.4-1.1 2.6-2.6 2.6z"/>
							<path id="&lt;Path&gt;" class="s6" d="m354.4 666.8h-8.7c-1.5 0-2.6-1.2-2.6-2.6 0-1.5 1.1-2.6 2.6-2.6h8.7c1.5 0 2.6 1.1 2.6 2.6 0 1.4-1.1 2.6-2.6 2.6z"/>
						</g>
						<path id="&lt;Path&gt;" class="s16" d="m427.7 636.3h6.2v-4.1h-6.2z"/>
						<path id="&lt;Path&gt;" class="s16" d="m427.7 642.1h6.2v-3.1h-6.2z"/>
						<g id="&lt;Group&gt;">
							<path id="&lt;Path&gt;" class="s16" d="m473.2 638.7v2.9l6.2 2v-2.1z"/>
							<path id="&lt;Path&gt;" class="s15" d="m456.7 631.1v5.2l16.5 5.3v-2.9z"/>
							<path id="&lt;Path&gt;" class="s16" d="m473.2 651.8v-3.6h6.2v0.8z"/>
							<path id="&lt;Path&gt;" class="s14" d="m456.7 659.3v-11.1h16.5v3.6z"/>
						</g>
						<path id="&lt;Path&gt;" class="s20" d="m405.6 641.1h-98.4v-2.1h98.4z"/>
					</g>
					<g id="&lt;Group&gt;">
						<path id="&lt;Compound Path&gt;" fill-rule="evenodd" class="s15" d="m291.7 140.2l3.8-9.4 6.8 6.6 3.6-8.8 6.8 6.6 3.6-8.8 6.7 6.7 3.6-8.8 6.8 6.6 3.6-8.8 6.8 6.7 3.5-8.8 6.8 6.6 3.6-8.8 6.8 6.7 3.5-8.8 6.8 6.6 3.6-8.8 6.8 6.7 3.5-8.8 6.8 6.6 3.6-8.8 6.8 6.7 3.5-8.8 6.8 6.6 3.6-8.8 6.8 6.7 3.5-8.8 6.8 6.6 3.6-8.8 6.8 6.7 3.5-8.8 6.8 6.6 2.7-6.7 18.4 19.3-20.7 53.5-163-3.8zm11.4 11.6c-0.1 2 1.5 3.6 3.5 3.7l6.9 0.1c2 0.1 3.7-1.5 3.7-3.5 0-2-1.5-3.6-3.5-3.7l-6.9-0.1c-2-0.1-3.7 1.5-3.7 3.5z"/>
						<path id="&lt;Compound Path&gt;" fill-rule="evenodd" class="s23" d="m443.5 129.2l18.8-19.8 55 1.3c1.5 0 2.8 0.9 3.5 2.2 0.5 1 0.5 2.2 0.1 3.2q-0.2 0.5-0.5 0.9l-10 13.5c-1.2 1.6-1.9 3.4-2.2 5.3l-2.3 16.1c-0.3 2.2 0 4.4 0.9 6.3l6.1 13.9q0.1 0.2 0.2 0.4c0.4 1.1 0.2 2.4-0.5 3.4-0.7 1.1-2 1.8-3.4 1.8l-58.2-1.4zm35.7 35.6c4.7 0.7 9-2.5 9.7-7.2l3.7-26.4c0.7-4.7-2.6-9-7.3-9.7q-0.5-0.1-1-0.1c-4.3-0.1-8 3-8.6 7.4l-3.8 26.4c-0.6 4.7 2.6 9 7.3 9.6z"/>
						<path id="&lt;Compound Path&gt;" fill-rule="evenodd" class="s6" d="m468.2 154.1l3.9-28.1c0.9-6.3 6.4-10.9 12.8-10.8l36 0.9q-0.2 0.5-0.5 0.9l-10 13.5c-1.2 1.6-1.9 3.4-2.2 5.3l-2.3 16.1c-0.3 2.2 0 4.4 0.9 6.3l6.1 13.9q0.1 0.2 0.2 0.4l-29.9-0.7c-4.4-0.1-8.6-2.1-11.5-5.5-2.9-3.4-4.1-7.8-3.5-12.2zm11.1 10.7c4.6 0.7 9-2.5 9.6-7.2l3.8-26.4c0.6-4.7-2.6-9-7.3-9.7q-0.5-0.1-1-0.1c-4.3-0.1-8.1 3.1-8.7 7.4l-3.7 26.4c-0.7 4.7 2.6 9 7.3 9.6z"/>
						<g id="&lt;Group&gt;">
							<g id="&lt;Group&gt;">
								<path id="&lt;Path&gt;" class="s24" d="m463.5 162.8c0-2.2-1.7-4-3.9-4.1-2.2 0-4 1.7-4 3.9-0.1 2.2 1.6 4 3.8 4 2.2 0.1 4-1.6 4.1-3.8z"/>
								<path id="&lt;Path&gt;" class="s14" d="m462.8 163.8c0-1.9-1.4-3.4-3.2-3.4-1.8-0.1-3.3 1.4-3.4 3.2 0 1.8 1.4 3.3 3.2 3.4 1.8 0 3.3-1.4 3.4-3.2z"/>
							</g>
							<g id="&lt;Group&gt;">
								<path id="&lt;Path&gt;" class="s24" d="m459.5 136c0-2.2-1.7-4-3.9-4-2.1-0.1-4 1.6-4 3.8-0.1 2.2 1.7 4 3.8 4 2.2 0.1 4-1.6 4.1-3.8z"/>
								<path id="&lt;Path&gt;" class="s14" d="m458.8 137c0.1-1.9-1.4-3.4-3.2-3.4-1.8 0-3.3 1.4-3.4 3.2 0 1.8 1.4 3.3 3.2 3.4 1.9 0 3.4-1.4 3.4-3.2z"/>
							</g>
							<g id="&lt;Group&gt;">
								<path id="&lt;Path&gt;" class="s24" d="m470.4 120.6c0-2.2-1.7-4-3.9-4.1-2.1 0-4 1.7-4 3.9-0.1 2.2 1.7 4 3.8 4 2.2 0.1 4-1.6 4.1-3.8z"/>
								<path id="&lt;Path&gt;" class="s14" d="m469.7 121.5c0-1.8-1.4-3.3-3.2-3.3-1.8-0.1-3.3 1.4-3.4 3.2 0 1.8 1.4 3.3 3.2 3.4 1.9 0 3.4-1.4 3.4-3.3z"/>
							</g>
						</g>
						<path id="&lt;Path&gt;" class="s13" d="m509.4 121.3q0.5 0 0.9 0.3c0.6 0.4 0.8 1.4 0.3 2.1l-5.6 8.3-3.3 22.8c-0.1 0.9-0.8 1.4-1.7 1.3-0.8-0.1-1.4-0.9-1.2-1.7l3.2-23.2q0.1-0.3 0.3-0.6l5.9-8.6c0.3-0.5 0.8-0.7 1.2-0.7z"/>
						<path id="&lt;Path&gt;" class="s16" d="m444 165l-88.1-2.1 16.2-35.5 70.9-14.5-7.4 16.5z"/>
						<path id="&lt;Path&gt;" class="s15" d="m397.3 117.2l4.4 1.9-20.4 46.9-4.4-1.9z"/>
						<path id="&lt;Path&gt;" class="s15" d="m411.2 112.7l6.7 2.9-23.1 53.2-6.6-2.9z"/>
					</g>
					<g id="&lt;Group&gt;">
						<g id="&lt;Group&gt;">
							<path id="&lt;Path&gt;" class="s9" d="m647.6 527.7h-32.9v6.9h1.2c1.3 0 2.5 0.5 3.3 1.4 0.9 1 1.3 2.3 1.1 3.5-1.8 11.9-2.1 24.6-1.9 38 0.2 13.3 0.6 26.7 2.6 43.7h-7.7v9.7h35.6v-9.7h-7.7c2.1-17 2.6-30.4 2.6-43.7 0-11.8-0.4-23.7-1.9-38-0.1-1.3 0.3-2.5 1.1-3.5 0.9-0.9 2.1-1.4 3.3-1.4h1.3z"/>
							<path id="&lt;Path&gt;" class="s11" d="m636.4 610.5c-1.2 0-2.2-1-2.2-2.3v-63.6c0-1.2 1-2.3 2.2-2.3 1.2 0 2.2 1.1 2.2 2.3v63.6c0 1.3-1 2.3-2.2 2.3z"/>
							<path id="&lt;Path&gt;" class="s25" d="m638.6 527.7h-15v-53.1h15z"/>
							<path id="&lt;Path&gt;" class="s16" d="m636.4 527.7h-3.4v-53.1h3.4z"/>
							<path id="&lt;Path&gt;" class="s6" d="m664.9 450.7h-83.3v26.9h83.3l32.1-9.8c1.6-0.5 2.7-2 2.7-3.7 0-1.7-1.1-3.2-2.7-3.7z"/>
							<path id="&lt;Path&gt;" class="s13" d="m678.5 463.2q-0.2 0-0.4-0.1l-14.7-4.2h-68.3c-0.9 0-1.5-0.7-1.5-1.5 0-0.8 0.6-1.5 1.5-1.5h68.5q0.2 0 0.4 0.1l14.9 4.2c0.8 0.3 1.3 1.1 1 1.9-0.2 0.6-0.8 1.1-1.4 1.1z"/>
						</g>
						<g id="&lt;Group&gt;">
							<path id="&lt;Path&gt;" class="s17" d="m699.3 562.2h-21.9v4.5h0.8c0.8 0 1.6 0.4 2.2 1 0.6 0.7 0.9 1.5 0.8 2.3-1.3 8-1.5 16.4-1.3 25.3 0.1 8.9 0.3 17.8 1.7 29.1h-5.1v6.5h23.7v-6.5h-5.1c1.3-11.3 1.7-20.2 1.7-29.1 0-7.9-0.3-15.7-1.3-25.3-0.1-0.8 0.2-1.6 0.8-2.3 0.5-0.6 1.3-1 2.2-1h0.8z"/>
							<path id="&lt;Path&gt;" class="s26" d="m691.9 617.3c-0.9 0-1.5-0.7-1.5-1.5v-42.4c0-0.8 0.6-1.5 1.5-1.5 0.8 0 1.5 0.7 1.5 1.5v42.4c0 0.8-0.7 1.5-1.5 1.5z"/>
							<path id="&lt;Path&gt;" class="s25" d="m693.3 562.2h-9.9v-35.4h9.9z"/>
							<path id="&lt;Path&gt;" class="s16" d="m691.9 562.2h-2.3v-35.4h2.3z"/>
							<path id="&lt;Path&gt;" class="s6" d="m710.8 510.9h-55.4v17.9h55.4l21.4-6.5c1.1-0.3 1.8-1.3 1.8-2.5 0-1.1-0.7-2.1-1.8-2.4z"/>
							<path id="&lt;Path&gt;" class="s13" d="m719.9 519.2q-0.2 0-0.3 0l-9.8-2.8h-45.5c-0.5 0-1-0.5-1-1 0-0.6 0.5-1 1-1h45.7q0.1 0 0.2 0l10 2.9c0.5 0.1 0.8 0.7 0.6 1.2-0.1 0.4-0.5 0.7-0.9 0.7z"/>
						</g>
					</g>
					<g id="&lt;Group&gt;">
						<g id="&lt;Group&gt;">
							<path id="&lt;Path&gt;" class="s23" d="m180 302.9h-6.6v-51.1h6.6z"/>
							<path id="&lt;Path&gt;" class="s27" d="m177.5 302.9h-2.5v-51.1h2.5z"/>
							<path id="&lt;Compound Path&gt;" fill-rule="evenodd" class="s28" d="m203.1 163.2v219.4h-33v-93.2h6.6c5.4 0 9.9-4.4 9.9-9.9v-13.2c0-5.4-4.5-9.9-9.9-9.9h-6.6v-93.2zm-5 185.1c0-6.4-5.1-11.6-11.5-11.6-6.4 0-11.6 5.2-11.6 11.6 0 6.3 5.2 11.5 11.6 11.5 6.4 0 11.5-5.2 11.5-11.5zm0-150.7c0-6.4-5.1-11.6-11.5-11.6-6.4 0-11.6 5.2-11.6 11.6 0 6.4 5.2 11.5 11.6 11.5 6.4 0 11.5-5.1 11.5-11.5z"/>
							<g id="&lt;Clip Group&gt;" clip-path="url(#cp8)">
								<g id="&lt;Group&gt;">
									<path id="&lt;Path&gt;" class="s29" d="m177.5 377.5h-3.3v-212.6h3.3z"/>
									<path id="&lt;Path&gt;" class="s29" d="m184.7 377.5h-3.3v-212.6h3.3z"/>
									<path id="&lt;Path&gt;" class="s29" d="m191.8 377.5h-3.3v-212.6h3.3z"/>
									<path id="&lt;Path&gt;" class="s29" d="m199 377.5h-3.3v-212.6h3.3z"/>
								</g>
							</g>
							<path id="&lt;Path&gt;" class="s6" d="m199 175.6h-24.8v-12.4h24.8z"/>
							<path id="&lt;Path&gt;" class="s6" d="m199 382.6h-24.8v-12.4h24.8z"/>
							<path id="&lt;Path&gt;" class="s6" d="m176.7 256.4h-6.6v4.1h6.6c3.2 0 5.8 2.6 5.8 5.8v13.2c0 3.2-2.6 5.8-5.8 5.8h-6.6v4.1h6.6c5.4 0 9.9-4.4 9.9-9.9v-13.2c0-5.4-4.5-9.9-9.9-9.9z"/>
							<g id="&lt;Group&gt;">
								<g id="&lt;Group&gt;">
									<path id="&lt;Path&gt;" class="s23" d="m189.9 359.8h-6.6v-23.1h6.6z"/>
									<path id="&lt;Path&gt;" class="s27" d="m187 359.8h-2.5v-23.1h2.5z"/>
									<path id="&lt;Compound Path&gt;" fill-rule="evenodd" class="s6" d="m186.6 361.9c-7.5 0-13.6-6.1-13.6-13.6 0-7.5 6.1-13.6 13.6-13.6 7.5 0 13.6 6.1 13.6 13.6 0 7.5-6.1 13.6-13.6 13.6zm0-23.1c-5.3 0-9.5 4.2-9.5 9.5 0 5.2 4.2 9.5 9.5 9.5 5.2 0 9.5-4.3 9.5-9.5 0-5.3-4.3-9.5-9.5-9.5z"/>
								</g>
								<g id="&lt;Group&gt;">
									<path id="&lt;Path&gt;" class="s23" d="m198.1 200.9h-23.1v-6.6h23.1z"/>
									<path id="&lt;Path&gt;" class="s27" d="m198.1 198h-23.1v-2.5h23.1z"/>
									<path id="&lt;Compound Path&gt;" fill-rule="evenodd" class="s6" d="m186.6 211.2c-7.5 0-13.6-6.1-13.6-13.6 0-7.5 6.1-13.6 13.6-13.6 7.5 0 13.6 6.1 13.6 13.6 0 7.5-6.1 13.6-13.6 13.6zm0-23.1c-5.3 0-9.5 4.2-9.5 9.5 0 5.2 4.2 9.5 9.5 9.5 5.2 0 9.5-4.3 9.5-9.5 0-5.3-4.3-9.5-9.5-9.5z"/>
								</g>
							</g>
						</g>
						<g id="&lt;Group&gt;">
							<path id="&lt;Path&gt;" class="s30" d="m117.3 202.6v70.3h-22v-70.3z"/>
							<path id="&lt;Path&gt;" class="s30" d="m127.1 272.1c0-1.8 1.4-3.2 3.2-3.2 7.3 0 14.3 2 20.4 5.9 1.6 0.9 2 2.9 1.1 4.5-1 1.5-3 1.9-4.6 1-5-3.2-10.9-4.9-16.9-4.9-1.8 0-3.2-1.5-3.2-3.3z"/>
							<path id="&lt;Path&gt;" class="s6" d="m130.3 341.4c18.9 0 34.3-15.3 34.3-34.2 0-19-15.4-34.3-34.3-34.3h-35v68.5z"/>
							<path id="&lt;Path&gt;" class="s23" d="m130.3 338.3c-17.2 0-31.1-14-31.1-31.1 0-17.2 13.9-31.2 31.1-31.2 17.2 0 31.2 14 31.2 31.2 0 17.1-14 31.1-31.2 31.1z"/>
							<path id="&lt;Path&gt;" class="s6" d="m143.1 284.9c-3.8-2.2-8.1-3.4-12.8-3.4-14.2 0-25.7 11.5-25.7 25.7 0 14.1 11.5 25.6 25.7 25.6 4.7 0 9-1.2 12.8-3.4z"/>
							<g id="&lt;Group&gt;">
								<path id="&lt;Compound Path&gt;" class="s23" d="m123.1 299.1v-9.4h2l3.4 3.4q1.5 1.5 2.1 1.9 0.6 0.5 1.1 0.7 0.5 0.2 1 0.2 0.8 0 1.2-0.5 0.4-0.4 0.4-1.1 0-0.8-0.3-1.5-0.4-0.8-1-1.6l1.8-1.5q0.8 1 1.2 1.6 0.3 0.7 0.5 1.4 0.2 0.8 0.2 1.8 0 1.2-0.5 2.2-0.4 0.9-1.3 1.5-0.8 0.5-1.8 0.5-1 0-1.8-0.3-0.8-0.4-1.6-1-0.9-0.7-2.4-2.4l-1.7-1.7h-0.1v5.8z"/>
								<path id="&lt;Compound Path&gt;" fill-rule="evenodd" class="s23" d="m129.8 309.6q-3.5 0-5.2-1.1-1.6-1.1-1.6-3.5 0-2.3 1.7-3.5 1.7-1.2 5.1-1.2 3.5 0 5.2 1.2 1.7 1.1 1.7 3.5 0 2.3-1.8 3.5-1.7 1.1-5.1 1.1zm0-6.5q-2.4 0-3.5 0.5-1.1 0.4-1.1 1.4 0 1 1.1 1.4 1.1 0.4 3.5 0.4 2.5 0 3.5-0.4 1.1-0.4 1.1-1.4 0-1-1.1-1.4-1-0.5-3.5-0.5z"/>
								<path id="&lt;Compound Path&gt;" class="s23" d="m123.1 320.9v-2.8h6q1.1 0 1.7-0.4 0.5-0.3 0.5-1.1 0-1.1-0.8-1.6-0.8-0.4-2.6-0.4h-4.8v-2.8h10.2v2.1l-1.3 0.4v0.1q0.7 0.4 1.1 1.2 0.4 0.8 0.4 1.8 0 2.3-1.5 3.1v0.2q0.8 0.4 1.1 1.2 0.4 0.8 0.4 1.8 0 1.8-0.9 2.7-0.8 0.9-2.8 0.9h-6.7v-2.8h6q1.1 0 1.7-0.4 0.5-0.4 0.5-1.2 0-1-0.7-1.5-0.7-0.5-2.3-0.5z"/>
							</g>
							<path id="&lt;Path&gt;" class="s6" d="m95.3 219.6v-17h22v17z"/>
							<g id="&lt;Group&gt;">
								<path id="&lt;Path&gt;" class="s31" d="m107.9 226.9v-2.6h9.4v2.6z"/>
								<path id="&lt;Path&gt;" class="s31" d="m107.9 233.9v-2.6h9.4v2.6z"/>
								<path id="&lt;Path&gt;" class="s31" d="m107.9 240.9v-2.6h9.4v2.6z"/>
								<path id="&lt;Path&gt;" class="s31" d="m107.9 248v-2.6h9.4v2.6z"/>
								<path id="&lt;Path&gt;" class="s31" d="m107.9 255v-2.6h9.4v2.6z"/>
								<path id="&lt;Path&gt;" class="s31" d="m107.9 262v-2.6h9.4v2.6z"/>
								<path id="&lt;Path&gt;" class="s31" d="m107.9 269.1v-2.6h9.4v2.6z"/>
							</g>
						</g>
					</g>
					<g id="&lt;Group&gt;">
						<g id="&lt;Group&gt;">
							<path id="&lt;Path&gt;" class="s32" d="m127.1 456.5c20.1 0 36.3 16.2 36.3 36.2 0 20.1-16.2 36.3-36.3 36.3-20 0-36.2-16.2-36.2-36.3 0-20 16.2-36.2 36.2-36.2z"/>
							<path id="&lt;Path&gt;" class="s15" d="m127.1 477.3c8.3 0 15.1 6.7 15.1 15 0 8.3-6.8 15-15.1 15-8.3 0-15-6.7-15-15 0-8.3 6.7-15 15-15z"/>
							<path id="&lt;Path&gt;" class="s14" d="m113.4 530.8c-15.5-5.6-26.7-20.5-26.7-38.1 0-11.1 4.5-21.2 11.9-28.5l28.5 28.5z"/>
							<path id="&lt;Path&gt;" class="s16" d="m127.1 460.6c17.5 0 31.7 14.2 31.7 31.7 0 17.5-14.2 31.7-31.7 31.7-17.5 0-31.6-14.2-31.6-31.7 0-17.5 14.1-31.7 31.6-31.7z"/>
							<path id="&lt;Path&gt;" class="s15" d="m89.3 492.7c0-7.9 2.5-15.6 7.1-22 0.3-0.5 1-0.6 1.5-0.3 0.4 0.4 0.5 1 0.2 1.5-4.4 6.1-6.7 13.3-6.7 20.8 0 5.8 1.4 11.5 4.1 16.6 0.2 0.5 0 1.2-0.5 1.4-0.5 0.3-1.1 0.1-1.4-0.4-2.8-5.4-4.3-11.5-4.3-17.6z"/>
						</g>
						<g id="&lt;Group&gt;">
							<g id="&lt;Group&gt;">
								<path id="&lt;Path&gt;" class="s6" d="m164.4 500.8v10.4h-9v10.3h9v10.4h4.8v-5c0-0.9 0.3-1.7 1-2.3 0.6-0.6 1.5-0.9 2.4-0.8 9.9 1.1 18.1 1.4 26.3 1.4 9.3 0 18.6-0.4 30.3-1.8v5.3h6.8v-24.7h-6.8v5.3c-11.7-1.4-21-1.8-30.3-1.8-8.2 0-16.4 0.3-26.3 1.4-0.9 0.1-1.8-0.2-2.4-0.8-0.7-0.6-1-1.4-1-2.3v-5z"/>
								<path id="&lt;Path&gt;" class="s13" d="m175.1 512.7c0-0.6 0.4-1.1 1-1.1h44.1c0.6 0 1.1 0.5 1.1 1.1 0 0.6-0.5 1-1.1 1h-44.1c-0.6 0-1-0.4-1-1z"/>
								<path id="&lt;Path&gt;" class="s13" d="m164.4 511.2v10.3h-9v-10.3z"/>
								<path id="&lt;Path&gt;" class="s16" d="m164.4 512.7v2.4h-9v-2.4z"/>
							</g>
							<path id="&lt;Path&gt;" class="s6" d="m155.9 600.1v2.7c0 14.5-11.7 26.2-26.2 26.2-14.4 0-26.1-11.7-26.1-26.2v-77.4l15.7-40.9c0.6-1.6 2.2-2.7 3.9-2.7h20.3c6.8 0 12.4 5.6 12.4 12.4v31.2 44.4z"/>
						</g>
						<path id="&lt;Path&gt;" class="s15" d="m109.9 611.8c0-0.3 0.2-0.7 0.5-0.9 0.5-0.2 1.1-0.1 1.4 0.4 3.7 6.4 10.6 10.3 17.9 10.3 0.6 0 1.1 0.5 1.1 1.1 0 0.5-0.5 1-1.1 1-8 0-15.6-4.3-19.7-11.3q-0.1-0.3-0.1-0.6z"/>
						<path id="&lt;Path&gt;" class="s17" d="m155.9 525.4h-52.3v77.4h52.3z"/>
						<path id="&lt;Path&gt;" class="s17" d="m129.7 618.5c9.8 0 17.7-7.9 17.7-17.6 0-9.7-7.9-17.6-17.7-17.6-9.7 0-17.6 7.9-17.6 17.6 0 9.7 7.9 17.6 17.6 17.6z"/>
						<g id="&lt;Clip Group&gt;" clip-path="url(#cp9)">
							<g id="&lt;Group&gt;">
								<path id="&lt;Path&gt;" class="s6" d="m119.4 617.8v-16.9h-4.2v16.9z"/>
								<path id="&lt;Path&gt;" class="s6" d="m127.7 617.8v-16.9h-4.2v16.9z"/>
								<path id="&lt;Path&gt;" class="s6" d="m136 617.8v-16.9h-4.2v16.9z"/>
								<path id="&lt;Path&gt;" class="s6" d="m144.2 617.8v-16.9h-4.1v16.9z"/>
							</g>
						</g>
						<path id="&lt;Path&gt;" class="s19" d="m108.7 598.1v-65.1c0-0.9 0.7-1.6 1.6-1.6 0.9 0 1.6 0.7 1.6 1.6v65.1c0 0.9-0.7 1.5-1.6 1.5-0.9 0-1.6-0.6-1.6-1.5z"/>
						<g id="&lt;Group&gt;">
							<g id="&lt;Group&gt;">
								<path id="&lt;Path&gt;" class="s19" d="m111.1 543.4c1.7 0 3.1-1.4 3.1-3.1 0-1.7-1.4-3.1-3.1-3.1-1.7 0-3.1 1.4-3.1 3.1 0 1.7 1.4 3.1 3.1 3.1z"/>
								<path id="&lt;Path&gt;" class="s6" d="m110.3 542.9c1.4 0 2.6-1.2 2.6-2.6 0-1.4-1.2-2.6-2.6-2.6-1.4 0-2.6 1.2-2.6 2.6 0 1.4 1.2 2.6 2.6 2.6z"/>
							</g>
							<g id="&lt;Group&gt;">
								<path id="&lt;Path&gt;" class="s19" d="m111.1 595.8c1.7 0 3.1-1.4 3.1-3.1 0-1.8-1.4-3.1-3.1-3.1-1.7 0-3.1 1.3-3.1 3.1 0 1.7 1.4 3.1 3.1 3.1z"/>
								<path id="&lt;Path&gt;" class="s6" d="m110.3 595.3c1.4 0 2.6-1.2 2.6-2.6 0-1.5-1.2-2.6-2.6-2.6-1.4 0-2.6 1.1-2.6 2.6 0 1.4 1.2 2.6 2.6 2.6z"/>
							</g>
						</g>
						<path id="&lt;Path&gt;" class="s18" d="m141.7 594.7v-61.7h-22.9v61.7z"/>
						<path id="&lt;Path&gt;" class="s17" d="m124.2 598.1v-68.8h2.1v68.8z"/>
						<g id="&lt;Group&gt;">
							<g id="&lt;Group&gt;">
								<path id="&lt;Path&gt;" class="s15" d="m127.1 498.4c3.5 0 6.3-2.7 6.3-6.2h-6.3z"/>
								<path id="&lt;Path&gt;" class="s16" d="m120.9 492.2c0 3.5 2.8 6.2 6.2 6.2v-6.2z"/>
								<path id="&lt;Path&gt;" class="s16" d="m133.4 492.2c0-3.4-2.8-6.2-6.3-6.2v6.2z"/>
								<path id="&lt;Path&gt;" class="s15" d="m120.9 492.2h6.2v-6.2c-3.4 0-6.2 2.8-6.2 6.2z"/>
							</g>
							<path id="&lt;Path&gt;" class="s6" d="m125.1 492.2c0 1.2 0.9 2.1 2 2.1 1.2 0 2.1-0.9 2.1-2.1 0-1.1-0.9-2.1-2.1-2.1-1.1 0-2 1-2 2.1z"/>
						</g>
					</g>
				</g>
			</g>
		</g>
	</g>
</svg>